<svg id="Layer_1" data-name="Layer 1" xmlns="http://www.w3.org/2000/svg" viewBox="0 0 807.34 929.73"><defs><style>.cls-1{fill:#fff;}</style></defs><path class="cls-1" d="M312.52-27.41c1.86.87,3,1.64,1.2,4C311-20,310-15.77,308.84-11.65c-1.51,5.44-4.7,8.14-10.52,8.68a189.46,189.46,0,0,1-26.09.55c-4.38-.19-4.39-.53-2.33-4.42,1.53-2.9,1.78-6.16,2.28-9.32,1.28-8,2.17-8.93,10.21-10.38a13.57,13.57,0,0,0,1.88-.66Z" transform="translate(106.03 27.41)"/><path class="cls-1" d="M-106,359.87c.81-.31,1.48-1,2.52-.21,3.88,3.07,8.61,4.29,13.19,5.77,5.32,1.7,8.48,4.57,8.9,10.81.6,9,0,18-.06,27,0,1.67-.59,2.14-2.16,1.65-6.52-2.05-13-4.13-19.58-6.07-1.82-.54-1.6-1.82-1.69-3.13-.31-4.93.29-9.93-1-14.79Z" transform="translate(106.03 27.41)"/><path class="cls-1" d="M701.31,377.41c-1.4,3.87-.44,8-1.25,11.94-.45,2.2-1,2.43-3.09,1.52-3.91-1.72-8-3.05-12-4.49-3.79-1.36-6.58-3.7-7.33-7.8-2-10.85-1.11-21.81-1.72-33.47a51.44,51.44,0,0,0,16.51,5.71c4.67.89,7.66,4.08,8.78,8.83Z" transform="translate(106.03 27.41)"/><path class="cls-1" d="M448.43,902.32c-.71-3.4-3.22-5.79-5-8.59-1.16-1.85-1.51-3,.32-4.74,4.5-4.23,8.49-9,13.26-13,3-2.47,5.34-2,8.07.54s2.42,5,.12,7.6q-8,9-16,18.14Z" transform="translate(106.03 27.41)"/><path class="cls-1" d="M323.44,735c1.1,9,6.18,15.06,11.53,21,.95,1,2.89,2,.72,3.84-10.39,8.78-20.88,17.38-34.33,21.23A53.59,53.59,0,0,1,279,782.32c-2.38-.32-3.63-1.38-3.37-4a48.21,48.21,0,0,1,2.49-12.19c1-2.77,2.83-5.18,5.76-5.78,14.56-3,25-12.57,35.55-21.93C320.53,737.48,321.65,736.52,323.44,735Z" transform="translate(106.03 27.41)"/><path class="cls-1" d="M372.64,716.5c10.2.21,18.91,2,26.61,7.27,4,2.72,4,4.29-.28,6.44-9,4.53-18.28,8.18-28.41,9.67-7.58,1.11-14.92,3.51-20.51,9.31-1.39,1.45-2.73,1.41-4.31.51C339.31,746,335,740.49,332,733.83c-.92-2.07-.23-3.62,1.74-4.69C346.26,722.38,359.19,717,372.64,716.5Z" transform="translate(106.03 27.41)"/><path class="cls-1" d="M266.18,819.61c7.71-5.47,14.49-10.28,21.28-15.06a3.56,3.56,0,0,1,3.13-.25c12.91,3.64,26,6.81,37.48,14.25,8.58,5.56,8.78,7.77,1.3,14.8-.59.55-1.17,1.11-1.8,1.61-12.1,9.5-10.1,8.1-20.52,1.23-7.69-5.07-16.35-8-25-11Z" transform="translate(106.03 27.41)"/><path class="cls-1" d="M232.58,722.72a50.93,50.93,0,0,0-5.24,22.38,11.35,11.35,0,0,1-4.45,8.68,115.67,115.67,0,0,0-19.74,21.14c-1.47,2.05-2.43,2-4.39.52-6.36-4.69-9.49-11.48-12.59-18.35a2.66,2.66,0,0,1,.23-2.66C196.84,737.3,212.3,727.5,232.58,722.72Z" transform="translate(106.03 27.41)"/><path class="cls-1" d="M423,733.39c-3.18,6.37-2.49,13.46-3,20.36-.25,3.39-1.38,5.77-4.39,7.53a188.21,188.21,0,0,1-38.52,17.25c-.84.26-1.79,1.1-2.61.3s-.06-1.73.22-2.6c1.76-5.42,1.94-11.1,2.57-16.69.51-4.46,2.33-8,6.37-10.11a372.31,372.31,0,0,1,36.82-16.24A2.13,2.13,0,0,1,423,733.39Z" transform="translate(106.03 27.41)"/><path class="cls-1" d="M179.36,770.94c2.62,3.78,4.89,7.74,8.24,10.85,2.27,2.1,4.42,4.61,7.36,5.51,4,1.22,5.52,4.09,6.27,7.56a49,49,0,0,0,12.39,24c3.27,3.47,2.45,5.47-2.3,6.61a85.16,85.16,0,0,1-15.54,2c-5.22.29-8.69-1.86-11.1-6.32-7.34-13.56-10.14-27.87-7.19-43.14.41-2.1.84-4.21,1.28-6.3C178.81,771.47,179.05,771.32,179.36,770.94Z" transform="translate(106.03 27.41)"/><path class="cls-1" d="M263.06,722.44c13.88-1,25.45,4.48,36,12.79,3.59,2.82,3.58,3.41-.07,6.21a56.43,56.43,0,0,1-12.93,7.35,11.06,11.06,0,0,1-8.22.22c-6.42-2.22-13.2-2.27-19.89-2.79-3.62-.28-7.26-.4-10.85-.9-4.32-.59-5.49-2.49-3.72-6.35,2.3-5,5-9.8,7.5-14.72a3.17,3.17,0,0,1,3.3-1.76C257.15,722.51,260.1,722.46,263.06,722.44Z" transform="translate(106.03 27.41)"/><path class="cls-1" d="M319.25,802.42c25.62-11.48,49.85-10.53,74.74,3.45-12,2.36-20.2,11-31.26,13.26-6.63,1.34-12.74.91-18.53-3.79-6.47-5.26-14.58-7.91-22.08-11.49C321.4,803.51,320.69,803.14,319.25,802.42Z" transform="translate(106.03 27.41)"/><path class="cls-1" d="M435,842.3c-3.63.42-6.68.68-9.7,1.13-4.46.67-8.82,2.15-12.08,5.14-4.75,4.34-5.69,4.29-11.16-1.23-7.07-7.14-13.43-15-22.25-20.27-2.72-1.62-1.25-3.42.5-4.77,7.27-5.62,15.35-7.38,24.27-4.83a41.62,41.62,0,0,1,13.84,7.21C424.79,829.53,429.85,835.59,435,842.3Z" transform="translate(106.03 27.41)"/><path class="cls-1" d="M328.69,850.28A239.89,239.89,0,0,1,347.33,831a8,8,0,0,1,7.51-1.75c4.6,1,9.25,1.7,14,.55a2.56,2.56,0,0,1,3.27,1.51c2.86,5.52,6.84,10.28,10.72,15.08,1.52,1.88,1.23,2.83-.75,3.93-11.32,6.3-23.16,8.94-36,5.56C340.29,854.36,334.38,853.21,328.69,850.28Z" transform="translate(106.03 27.41)"/><path class="cls-1" d="M472.16,723.16a96.89,96.89,0,0,0-.5,10.05c.31,5.58-2.39,8.52-7.36,10.46-8.61,3.38-17.1,7.08-25.58,10.8-3.42,1.5-4.22.2-4.22-3a62.63,62.63,0,0,1,3.1-20.61,7.64,7.64,0,0,1,4.84-4.84c8.9-3.73,17.64-7.86,26.39-12,2.26-1.07,3.39-1.25,3.16,1.84-.19,2.4,0,4.84,0,7.25Z" transform="translate(106.03 27.41)"/><path class="cls-1" d="M240.49,756.86c9,.38,17.81,2.18,26.7,3.45,2.89.41,3.89,1.47,2.7,4.49-2.05,5.22-4,10.5-4.09,16.28,0,2.95-2.45,2.45-4.19,2.25a169,169,0,0,1-22.05-4.39A134.25,134.25,0,0,1,222,773.29c-3.33-1.35-3.25-2.86-1.14-5.27a69.8,69.8,0,0,1,9.65-9.1C233.5,756.58,237,756.67,240.49,756.86Z" transform="translate(106.03 27.41)"/><path class="cls-1" d="M430.67,788.13c.44,8.43-2.63,15.11-6,21.73-.95,1.89-2.27,2-3.95,1.11-6.34-3.21-12.69-6.36-19-9.61-2.74-1.42-3.88-3.35-2.31-6.55,1.36-2.78,1.53-5.94,1.45-9a6.67,6.67,0,0,1,3.8-6.58c6.61-3.25,13.29-6.36,19.95-9.51,2.28-1.09,2.82.61,3.28,2.19A65.26,65.26,0,0,1,430.67,788.13Z" transform="translate(106.03 27.41)"/><path class="cls-1" d="M-67.65,206.48c2.8,4.92,7.31,8.33,11.59,12a10.21,10.21,0,0,1,3.48,10.87c-2.29,9.43-6.08,18.32-9.57,27.32-.82,2.11-1.83,2.31-3.56,1-6-4.59-11.14-10.11-16.62-15.26a2,2,0,0,1-.38-2.51c4.19-10.45,7.9-21.1,12.84-31.25A3.72,3.72,0,0,1-67.65,206.48Z" transform="translate(106.03 27.41)"/><path class="cls-1" d="M349.67,1.06C339.56,0,330-1.1,320.37-2.07c-2.42-.25-2.73-1-1.66-3.19,2.16-4.45,4-9.06,6-13.61,1.83-4.18,4.6-6.48,9.6-6.25a295.32,295.32,0,0,1,30,3c3,.44,3.89,1.31,1.39,3.83-3.09,3.12-4.48,7.25-6.14,11.21C357.59-2.49,354.62.88,349.67,1.06Z" transform="translate(106.03 27.41)"/><path class="cls-1" d="M43.23,95.61c-.32-6.33-2.78-11-5.15-15.64C34.61,73.1,35,70.3,40.7,65.09c7.44-6.82,15.75-12.52,24.11-19C67.24,52.74,70,58.93,71,65.69a8.62,8.62,0,0,1-2.63,8.11C60.25,81,52,88,43.23,95.61Z" transform="translate(106.03 27.41)"/><path class="cls-1" d="M469.31,10.54c-6.78,4.16-11.35,9.69-16.77,14.25-2.84,2.39-5.59,3.21-9.18,1.72-8.54-3.52-17.15-6.86-25.78-10.16-1.85-.71-1.9-1.38-.78-2.82,3-3.92,5.92-8,9-11.88S433-3.43,437.65-2.09C448.34,1,458.45,5.6,469.31,10.54Z" transform="translate(106.03 27.41)"/><path class="cls-1" d="M9,129.17c-2.2-5.27-5.41-9.4-8.2-13.8s-2.83-8.57.39-12.69A180,180,0,0,1,22.87,80c1.19-1.08,2.71-2.08,3,.6.74,6.29,3.88,11.66,6.29,17.32a7.29,7.29,0,0,1-1.24,8.45A205.35,205.35,0,0,1,9,129.17Z" transform="translate(106.03 27.41)"/><path class="cls-1" d="M661.6,546.12c-1-5-4.74-8.08-8.07-11.37-6.85-6.76-7.47-9-3.78-17.8,3.53-8.4,7.37-16.67,11.34-25.59,5.81,5.84,11.83,10.7,16.29,17.12a4.34,4.34,0,0,1,.74,4.47,249.93,249.93,0,0,1-15.45,32.31C662.49,545.58,662.06,545.76,661.6,546.12Z" transform="translate(106.03 27.41)"/><path class="cls-1" d="M607.49,634.21c-2.41-6.1-6.4-10.4-9.34-15.36-2-3.32-2.17-6.28-.22-9.79,5.5-9.87,12.89-18.44,18.79-28.53,1.92,5.91,5.59,10,9,14.3,5.29,6.62,5.43,9.13.59,16.12C620.75,619,615,626.9,607.49,634.21Z" transform="translate(106.03 27.41)"/><path class="cls-1" d="M-104.37,411.27a61.54,61.54,0,0,0,19,5.25c3.19.42,4.72,3.32,5.7,6.23,3.25,9.72,3.94,20,6.34,29.9.45,1.87-.62,2.44-2.28,2.21-6-.81-12-1.18-17.86-2.88-4.53-1.33-6-5.13-6.88-9.15-1.74-7.74-2.54-15.64-3.44-23.5C-104.12,416.83-105.1,414.36-104.37,411.27Z" transform="translate(106.03 27.41)"/><path class="cls-1" d="M504.44,57.26c6.78-3.14,11.67-7.86,17.31-11.5,2.68-1.73,4.94-1.82,7.72-.07,9.55,6,18.2,13.18,27.58,20.12C550.62,70,544.71,74.22,538,77c-1.51.63-3.12,1.2-4.68.45C522.7,72.38,513.61,65.18,504.44,57.26Z" transform="translate(106.03 27.41)"/><path class="cls-1" d="M-61.36,561.88c7.24,1.26,13,.15,18.68-1.57,4.65-1.39,8,1.05,10.88,4.37,4.48,5.22,8,11.11,11.49,17,1.8,3,6,6.22,4.65,9.1-1.09,2.36-6.35,1.56-9.73,2.32-2.35.53-4.9.36-7.13,1.14-7.28,2.55-11.06-.58-14.24-7C-50.9,578.86-56,571-61.36,561.88Z" transform="translate(106.03 27.41)"/><path class="cls-1" d="M638.08,592.74c-1.35-5-4.94-8.46-8.3-12-4.43-4.71-5.71-9.44-2.54-15.61,3.85-7.51,7.18-15.3,11.31-22.68,1.23-2.18,2.3-2.56,4.23-.77a104.82,104.82,0,0,1,13.09,14.2c.92,1.23,1.5,2.42.77,4.06a200.47,200.47,0,0,1-17.7,32.46C638.82,592.55,638.48,592.57,638.08,592.74Z" transform="translate(106.03 27.41)"/><path class="cls-1" d="M115,733.63a16.21,16.21,0,0,1-7.12-1.75,166.89,166.89,0,0,1-23.46-13.3c-2.15-1.41-2.47-2.52-.23-4.12,5.58-4,11.27-7.8,16.44-12.33,1.11-1,2.16-.74,3.32-.12,9,4.82,18.06,9.52,27,14.46,3.63,2,3.51,2.44.05,5.06a43.85,43.85,0,0,0-7.8,8.13C121.09,732.33,118.45,734,115,733.63Z" transform="translate(106.03 27.41)"/><path class="cls-1" d="M513.88,687.5c-.23,7,2.16,12.32,3.43,17.93s-.42,10-5.15,12.84c-7.91,4.8-16,9.26-24,13.88-1.85,1.07-2.78.87-3.09-1.56-.89-6.78-2-13.53-3-20.29a2.44,2.44,0,0,1,1.06-2.77C493.05,701.05,503,694.55,513.88,687.5Z" transform="translate(106.03 27.41)"/><path class="cls-1" d="M-60.5,503.92c-5-2.35-10.33-1.38-15.5-1.45-7.61-.09-9.24-1.06-11.93-8.2a191.44,191.44,0,0,1-7.89-26.14c-.66-2.94.37-3.62,3-3.37A197.34,197.34,0,0,1-72.61,468a4.08,4.08,0,0,1,3.42,3.09c2,10.31,6.32,19.91,8.77,30.08A3.09,3.09,0,0,1-60.5,503.92Z" transform="translate(106.03 27.41)"/><path class="cls-1" d="M668.53,296.11c5.58,2.71,10.87,3.3,16.29,3.26,5.18,0,8.61,2.5,10.23,7.48,2.48,7.59,3.19,15.5,4.15,23.36.45,3.65,1.5,7.3.75,11.46-4.8-3.6-10.28-4.37-15.64-5.39-5.77-1.09-9.21-3.89-10.16-10.09C672.65,316.4,670.54,306.7,668.53,296.11Z" transform="translate(106.03 27.41)"/><path class="cls-1" d="M365.76,2.26c4.33-1.9,5.52-5.1,7-8,1-2,1.92-4.15,3-6.16,2.22-4.15,5.78-6,10.37-5.31,11,1.72,21.72,4.89,32.4,8.05a6.91,6.91,0,0,1,1.36.89C414.72-5.83,412.3-1.57,410.22,3c-2.27,5-6.45,7.12-11.76,6.75C387.54,9,377.13,6,365.76,2.26Z" transform="translate(106.03 27.41)"/><path class="cls-1" d="M678.1,238.68c-8.86-.92-17-1.73-25.06-2.6a3.73,3.73,0,0,1-3.07-2.27c-4.28-8.65-8.63-17.26-12.28-26.2-1.1-2.69-.92-4.07,2.63-4.21,4.94-.19,9.85-1.1,14.77-1.62,4.56-.48,8,1.53,9.78,5.57C669.35,217.5,673.52,227.78,678.1,238.68Z" transform="translate(106.03 27.41)"/><path class="cls-1" d="M148.43,725.45l2.29.59c9.58,2.59,18.71,6.49,28.07,9.74,1.8.63,2.5,1.28.77,2.9-4.12,3.87-7.5,8.39-11.09,12.73-2.82,3.4-5.87,4.71-10.54,3q-13.59-4.95-26.91-10.57c-1.69-.71-3.45-1.3-1.46-3.59A84,84,0,0,1,145,726.21,4.61,4.61,0,0,1,148.43,725.45Z" transform="translate(106.03 27.41)"/><path class="cls-1" d="M606.11,149.66c-2.29.3-3.91-.83-5.27-2.41-6.38-7.43-12.72-14.89-19.12-22.29-1.27-1.48-1.34-2.34.65-3.18,4.56-1.93,9-4.06,13.57-6,5.09-2.22,9.42-1,13,3.08,6.53,7.31,12.1,15.37,18.07,23.12.79,1,1.22,1.93-.4,2.35C619.8,146.09,613.14,148.6,606.11,149.66Z" transform="translate(106.03 27.41)"/><path class="cls-1" d="M-33.85,607c6.24,1.31,10.71-.69,15.12-2.59,6.67-2.88,12.18-1.63,17,3.75,5.49,6.09,10.53,12.53,15.48,19.06,2.09,2.76,1.6,3.86-1.88,4.71C6.32,633.27.9,635.29-4.59,637c-1.75.55-3.45.71-4.89-.73A218.57,218.57,0,0,1-33.85,607Z" transform="translate(106.03 27.41)"/><path class="cls-1" d="M691.88,459.94A236.15,236.15,0,0,1,687,484.62c-.79,3.25-1.79,6.46-2.62,9.71-.47,1.86-1.35,2.06-2.87,1a185.28,185.28,0,0,1-17.47-14.28c-1.32-1.16-1-2.36-.67-3.64q3.51-14.9,7.07-29.77c.32-1.33.58-3.07,2.48-1.5,4.71,3.9,10.55,5.89,15.53,9.3C690.12,456.6,691.86,457.77,691.88,459.94Z" transform="translate(106.03 27.41)"/><path class="cls-1" d="M-81.63,357.26c-4.22-4.08-8.6-5.07-12.78-6.46-7.56-2.51-9.43-4.95-9.31-13,.16-10.74,2.1-21.31,3.27-32.94,5.2,5.48,11.41,8,17.4,10.92a7.06,7.06,0,0,1,4,5.72C-77.83,333.31-80.33,344.76-81.63,357.26Z" transform="translate(106.03 27.41)"/><path class="cls-1" d="M-68.6,274.59c.07,3.91-1,7.68-1.88,11.46A151.14,151.14,0,0,0-74.16,305c-.11,1.09-.15,2.33-1.3,2.73-1.43.5-1.56-1-2.22-1.78-2.65-3-6.37-4.39-9.83-6.13-8.34-4.21-9.5-6.45-7.74-15.63,1.64-8.58,4.28-16.89,6.57-25.3.63-2.31,1.6-3.35,3.76-1.26,3.31,3.22,7.32,5.42,11.31,7.65C-70,267.3-68.16,270.33-68.6,274.59Z" transform="translate(106.03 27.41)"/><path class="cls-1" d="M-12.94,117.46c4.2,6.22,8.46,11.74,11.32,18.16.74,1.67,1.15,3.36.3,5-5.39,10.7-12.59,20.18-20.23,30.49-.36-5.34-3-8.39-6-11.32a27.53,27.53,0,0,1-3.79-4.68c-3.66-5.75-3.59-8,.42-13.42C-25.07,133.74-19.13,125.81-12.94,117.46Z" transform="translate(106.03 27.41)"/><path class="cls-1" d="M595.15,101.88c-5.74,3.05-11,6.26-17,8a13.71,13.71,0,0,1-12.26-2.25c-6.91-5-12.79-11.06-18.59-17.23-2.05-2.19-1.62-3.34,1.12-4.7,4.91-2.44,9.57-5.4,14.34-8.14,2.36-1.36,4.43-1.09,6.66.59C578.72,85.11,586.53,93.63,595.15,101.88Z" transform="translate(106.03 27.41)"/><path class="cls-1" d="M609.48,160.27c7.67.18,14.09-1.89,20.52-3.7,3.3-.93,5.73-.4,7.79,2.32,6.42,8.51,11.55,17.78,16.31,27.27,1.14,2.28.73,3.32-2.11,3.51-4.81.32-9.62.91-14.39,1.68-5.12.82-8.78-.89-11.6-5.23C620.59,177.8,615.93,169,609.48,160.27Z" transform="translate(106.03 27.41)"/><path class="cls-1" d="M461.51,34.21c5.38-5.35,10.12-10.48,15.51-15,2.35-1.95,4.49-2.31,7.32-.88a267.64,267.64,0,0,1,26,14.51c3.57,2.33,3.42,2.78.16,5.26-3.84,2.94-7.59,6-11.27,9.14a7.55,7.55,0,0,1-8.52,1.37C480.73,44.66,471.43,39.29,461.51,34.21Z" transform="translate(106.03 27.41)"/><path class="cls-1" d="M693,289.55c-5.19-2.93-9.85-3.21-14.57-3.31-9.68-.2-11.27-1.15-14.45-10.09-2.69-7.56-4.81-15.33-7.33-22.95-.67-2,0-2.68,1.83-3a52.06,52.06,0,0,1,20.35.93,4,4,0,0,1,3.17,2.23A284.12,284.12,0,0,1,693,289.55Z" transform="translate(106.03 27.41)"/><path class="cls-1" d="M524.46,687.34c-.05-4.59,1.37-7.53,3.82-9.73,7.1-6.36,14.36-12.55,21.58-18.78,1.19-1,2.19-1.52,2.66.8.9,4.38,3.06,8.3,5.07,12.24,2.71,5.31,2.21,10.07-2.07,14.34-6.88,6.86-14.72,12.52-22.52,18.24-2.12,1.55-3.58,1.6-3.66-1.77-.09-3.53-1.45-6.79-2.92-10C525.47,690.64,524.45,688.57,524.46,687.34Z" transform="translate(106.03 27.41)"/><path class="cls-1" d="M596.78,643.28c.16,3.77-1.71,6.72-3.95,9.44C587.14,659.6,580,665,573.37,670.81c-1.31,1.15-2,.84-2.65-.63-2.22-5-4.81-9.9-6.48-15.16a10.46,10.46,0,0,1,1.84-9.88c5.87-7.9,12.81-14.84,19.78-21.74,1.08-1.08,2.23-2,2.57.58.52,3.88,2.8,6.91,4.89,10C595.19,636.83,596.89,639.72,596.78,643.28Z" transform="translate(106.03 27.41)"/><path class="cls-1" d="M82.15,64.33c.46-6.38-2-11.36-3.43-16.6C76.91,40.91,77.44,39.27,83,35c7.81-5.93,16.46-10.55,24.82-15.63,1.82-1.11,2.69-.75,2.89,1.31.68,6.93,2.09,13.79,2,20.79A4.85,4.85,0,0,1,111,45.7C102.06,52.6,92,57.66,82.15,64.33Z" transform="translate(106.03 27.41)"/><path class="cls-1" d="M-39.47,549.25c-5.43-1.52-9.76-.55-14.09.31-9.81,2-12.56.77-16.9-8.25-3-6.27-5.73-12.71-8.31-19.17-2.39-6-1.49-7.29,4.8-7.28,5.37,0,10.73.34,16.09.51,1.26,0,2.35.21,3,1.51C-49.57,527.26-44.57,537.76-39.47,549.25Z" transform="translate(106.03 27.41)"/><path class="cls-1" d="M-44.56,212.64c-5.67-5.61-11.28-10.78-15.95-16.89-1.37-1.8-1.1-3.36-.22-5.2,5.06-10.56,11.3-20.44,17.42-31.19,3.36,6.06,7.82,10.62,12,15.46,2.64,3.08,1.67,6.92.41,10.4C-34.38,194.74-39.81,203.28-44.56,212.64Z" transform="translate(106.03 27.41)"/><path class="cls-1" d="M170.86,16c.59-7.1,1.08-13,1.55-18.87.25-3.12,1.62-4.91,4.86-5.88,9.63-2.9,19.22-5.88,29-8.17,2.87-.67,4.64-.6,2.93,3.15-2.18,4.79-1.48,10-2,15.08-.4,4-1.94,6.58-6.08,7.85-8.7,2.69-17.3,5.73-25.89,8.75C172.07,19,170.24,18.81,170.86,16Z" transform="translate(106.03 27.41)"/><path class="cls-1" d="M217.53,5.7c2.91-4.84,3.08-9.65,3.15-14.49.11-7.84,2.28-10.64,9.82-12.4,9.68-2.27,19.6-3,29.39-4.55,2.08-.33,2.52.5,1.66,2.18A35.11,35.11,0,0,0,258.17-10c-.4,5.22-4.13,7.89-8.7,9.48-6.88,2.39-14.14,3-21.24,4.31C224.84,4.4,221.44,5,217.53,5.7Z" transform="translate(106.03 27.41)"/><path class="cls-1" d="M677.22,394.35c4.71,4.39,9.75,6.3,15.34,7.64s7.11,6.7,7.06,11.86a112.19,112.19,0,0,1-3.78,27.8c-.56,2.14-1.19,3.48-3.65,1.41-3.3-2.79-7.41-4.26-11.34-6-4.55-2-6.8-5.27-6.63-10.37C674.57,416.13,676.17,405.67,677.22,394.35Z" transform="translate(106.03 27.41)"/><path class="cls-1" d="M159.1,8c.06,14.38.09,14.44-12.68,20.6-5.91,2.85-11.95,5.45-18,8.06-2,.86-3.44.9-3.2-2.26.29-3.75-.83-7.43-1.64-11.1-1.49-6.78-.63-8.85,5.2-12.3A159.34,159.34,0,0,1,153.69-1.23C158-2.87,158.3-2.66,158.88,2c.08.66.16,1.33.18,2C159.1,5.29,159.09,6.64,159.1,8Z" transform="translate(106.03 27.41)"/><path class="cls-1" d="M59.21,675.06a11.6,11.6,0,0,1,6.54,1.7,149.28,149.28,0,0,1,22.42,15.65c2,1.64,3.1,3-.62,4.16-3.15.95-5.23,3.66-7.55,5.89-5.49,5.29-9.28,5.95-15.87,2.16-8.19-4.7-15.45-10.68-22.48-17-1.71-1.53-2.47-2.83.6-3.89,3.71-1.28,6.76-3.8,10-6C54.3,676.27,56.5,675,59.21,675.06Z" transform="translate(106.03 27.41)"/><path class="cls-1" d="M30.47,674.43c-2.07.06-4.53-1.35-6.75-3.09A147.73,147.73,0,0,1,3.33,651.41c-1.65-1.9-2.06-3,1.08-4,4.95-1.61,9.7-3.82,14.5-5.85a6.71,6.71,0,0,1,7.14.86,162.7,162.7,0,0,1,22.61,19.9c1.72,1.85,2.21,2.92-.78,4.17-3.31,1.38-6.28,3.55-9.4,5.37A15,15,0,0,1,30.47,674.43Z" transform="translate(106.03 27.41)"/><path class="cls-1" d="M271.74,799.15c-6.33,5.63-12.14,10.79-17.94,16a3.94,3.94,0,0,1-4.41.88,36.16,36.16,0,0,0-17.9-1.5,6.39,6.39,0,0,1-6.44-2.44c-3.4-4.51-6.64-9.13-10-13.64-1.23-1.62-.69-2.34,1-2.81a19.74,19.74,0,0,1,4.26-1.17c16.14-.59,32.26-.69,48.06,3.55C269.22,798.24,270.09,798.59,271.74,799.15Z" transform="translate(106.03 27.41)"/><path class="cls-1" d="M199,839.79c6-.37,10.77-.58,15.41-1.83a35.52,35.52,0,0,0,10.07-4c7.57-4.85,15.43-3.09,23.3-1.12,1.89.48,2.36,1.89,1.88,3.79a30.61,30.61,0,0,1-7.68,14.4,12.26,12.26,0,0,1-10.68,3.65C219.39,853.21,209.54,847.21,199,839.79Z" transform="translate(106.03 27.41)"/><path class="cls-1" d="M144.73,839.85a72.57,72.57,0,0,1,20.46-21.31c2.89-2,4.6-1.3,6.07,1.49.93,1.77,1.89,3.54,2.81,5.33a64.45,64.45,0,0,0,6,9c1.65,2.19,5.56,3.64,4.9,6.19-.58,2.24-3.92,3.78-6.06,5.6-5.94,5-6.13,5.26-12.16.26C160.29,841.12,153.37,838.17,144.73,839.85Z" transform="translate(106.03 27.41)"/><path class="cls-1" d="M252.56,858.41c2-2.63,3.63-4.57,5.07-6.64,4-5.73,6.08-11.95,4.28-19-.49-1.94-.16-3,2-2.56a230.36,230.36,0,0,1,31.65,9c1.8.65,1.45,1.65.23,2.56C283.16,851.23,270.1,859.49,252.56,858.41Z" transform="translate(106.03 27.41)"/><path class="cls-1" d="M345.78,783.09c-7.19.61-12.41,0-17.64-.34-2.74-.18-3.54-1.51-1.41-3.46,10.44-9.51,21.82-17.38,36-20.2,2.59-.52,3.18.43,2.85,2.68a82.06,82.06,0,0,1-4.13,16.77,5,5,0,0,1-4,3.4C353,782.9,348.36,782.71,345.78,783.09Z" transform="translate(106.03 27.41)"/><path class="cls-1" d="M433.46,854a25.92,25.92,0,0,1,11.4,3.61c1.81,1,1.56,2.1.2,3.42q-7.06,6.86-14.68,13.1c-1.55,1.27-2.77,1.29-4.12-.14-2.94-3.11-6-6.16-8.85-9.31-.84-.92-2-2.06-.28-3.31A45.66,45.66,0,0,1,433.46,854Z" transform="translate(106.03 27.41)"/><path class="cls-1" d="M144.46,851.26c7.18-.16,12.31,3,16.85,7.46,1.13,1.13,1.08,1.93,0,3-3,2.91-5.9,5.85-8.79,8.83-1.39,1.44-2.63,1.49-4.09.11q-7.32-6.9-14.71-13.7c-1.47-1.35-1.05-2.17.53-2.92C137.66,852.41,141.08,850.88,144.46,851.26Z" transform="translate(106.03 27.41)"/><path class="cls-1" d="M135,889a19.82,19.82,0,0,1-4.94,7.41c-.92.92-1.7.22-2.41-.41-6.31-5.66-11.25-12.54-16.71-18.94-.85-1-.47-1.6.4-2.27,1.91-1.45,3.82-2.92,5.68-4.45a1.67,1.67,0,0,1,2.69.12c4.59,4.68,9.27,9.27,13.87,13.94A4.8,4.8,0,0,1,135,889Z" transform="translate(106.03 27.41)"/><path class="cls-1" d="M451.71,869a51.34,51.34,0,0,1-15.65,14.74C440.2,877.67,445.08,872.42,451.71,869Z" transform="translate(106.03 27.41)"/><path class="cls-1" d="M141.84,879.37a57.86,57.86,0,0,1-15.09-15A54.69,54.69,0,0,1,141.84,879.37Z" transform="translate(106.03 27.41)"/><path class="cls-1" d="M-12.68,329.19A8,8,0,0,0-16,331.3a8.05,8.05,0,0,0-2.12,5.38c-.26,4.72,2.43,7.31,5.7,7.49,1.53.08,4.22-.31,6.46-5.16l2.33-5c4.31-9.16,9.78-11.46,15.57-11.15,9.67.52,15.92,7.72,15.41,17.24-.31,5.86-2.71,9.25-5.74,11.68a16.4,16.4,0,0,1-10.12,3.73l-1.27-7.78A11,11,0,0,0,16.81,346a8.06,8.06,0,0,0,3.4-6.46,8.17,8.17,0,0,0-8.08-8.83c-5.18-.28-7.52,3.56-9.07,6.84L.74,342.27c-2,4.1-5.81,10.08-13.42,9.67-6.85-.37-13.11-6.05-12.61-15.57.3-5.48,2.52-8.49,4-10A17.18,17.18,0,0,1-16,322.75Z" transform="translate(106.03 27.41)"/><path class="cls-1" d="M-1.42,267.6C-7.61,272-9.26,277-9.88,279.87c-2.36,10.8,4,19.84,15,22.24,10.5,2.29,20.29-3.53,22.6-14.1a20.23,20.23,0,0,0-2.8-14.67l9,2a27.7,27.7,0,0,1,.74,14.44,25.44,25.44,0,0,1-10.7,16.08A24.93,24.93,0,0,1,3.42,309.7c-9.16-2-14.66-7.18-17.69-12.22-3.72-6.19-4.06-12.51-2.56-19.36a24.23,24.23,0,0,1,6.48-12.48Z" transform="translate(106.03 27.41)"/><path class="cls-1" d="M35.8,211.32c13.65,6.06,19.56,21,13.37,34.88S28,265.74,14.32,259.68-5.24,238.73,1,224.79,22.14,205.25,35.8,211.32Zm-3.16,7.11c-10.31-4.58-20.72-.69-25.14,9.27s-.34,20.29,10,24.87,20.71.69,25.14-9.27S43,223,32.64,218.43Z" transform="translate(106.03 27.41)"/><path class="cls-1" d="M26.87,177.36l25.25,17.37c2.26,1.55,5.07,3.39,8.13,3.65A11.12,11.12,0,0,0,71,182.8c-1.33-2.77-4-4.73-6.31-6.29L39.4,159.14l4.41-6.41,26.94,18.54a18.81,18.81,0,0,1,8.19,11.37,19.71,19.71,0,0,1-16,23.24A18.81,18.81,0,0,1,49.4,202.3L22.46,183.76Z" transform="translate(106.03 27.41)"/><path class="cls-1" d="M72.86,131.2l31.63,29.92-5.35,5.65L67.51,136.85l-8,8.48-5.32-5,21.37-22.6,5.32,5Z" transform="translate(106.03 27.41)"/><path class="cls-1" d="M111.39,102.22a8.1,8.1,0,0,0-3.79-1.07,8.19,8.19,0,0,0-5.43,2c-3.69,3-3.82,6.69-1.77,9.24.95,1.19,3,2.94,8.14,1.39l5.28-1.59c9.7-2.9,15.06-.36,18.69,4.16,6.06,7.56,4.85,17-2.58,23-4.58,3.67-8.7,4.14-12.53,3.5a16.44,16.44,0,0,1-9.54-5.06l5-6.12a11,11,0,0,0,5.72,3.72,8,8,0,0,0,7.08-1.78,8.16,8.16,0,0,0,1.2-11.9c-3.24-4-7.67-3.23-11.15-2.2L110.58,121c-4.37,1.26-11.38,2.39-16.15-3.56-4.3-5.35-4.24-13.81,3.2-19.77,4.28-3.44,8-3.79,10.11-3.72A17.34,17.34,0,0,1,114,95.45Z" transform="translate(106.03 27.41)"/><path class="cls-1" d="M160.89,58.81l15,29.34c1.84,3.59,3.54,7.26,3.57,11.18a12.7,12.7,0,0,1-7.33,12,16.18,16.18,0,0,1-9.2,1.78l.42-7.58a7.8,7.8,0,0,0,5.58-.79,5.05,5.05,0,0,0,3-5.38c-.11-1.23-.6-3-3-7.65L154,62.34Z" transform="translate(106.03 27.41)"/><path class="cls-1" d="M220.16,77,199.6,84l-1.3,13.41-7.94,2.71L196.91,41l40.2,43.14-7.93,2.72ZM214.83,71,202.12,57.17,200.26,76Z" transform="translate(106.03 27.41)"/><path class="cls-1" d="M243.93,82.73,236.58,29l41.8,33.31-4.77-34.9,7.7-1.06,7.31,53.49L246.83,46.48l4.81,35.2Z" transform="translate(106.03 27.41)"/><path class="cls-1" d="M336.18,27.9c6.51.78,10.5,2.11,13.46,5.61A13.08,13.08,0,0,1,352.45,44a11.1,11.1,0,0,1-2.24,5.79,8.41,8.41,0,0,1-4.2,3,14,14,0,0,1,6.07,4.42,13.19,13.19,0,0,1,2.19,9.86,12.38,12.38,0,0,1-4.42,8.68C345.33,79.53,339,79.45,335.1,79l-12.64-1.52L328.54,27Zm-5.12,43.23,4.69.56c2.2.27,5.72.31,7.88-1a7.28,7.28,0,0,0,3.17-5.3,7.61,7.61,0,0,0-1.4-5.55c-1.88-2.3-4.95-2.9-7.68-3.23L332.88,56Zm2.58-21.5,2.35.29c1.89.22,4.49.31,6.52-1.22s2.45-3.77,2.66-5.51a6.3,6.3,0,0,0-1.23-5.06c-1.54-1.88-3.71-2.37-5.91-2.64l-2.65-.31Z" transform="translate(106.03 27.41)"/><path class="cls-1" d="M402.29,49,382.73,43.6,379.32,56l19,5.2-1.94,7.06-19-5.2-4.23,15.44,19.56,5.36L390.79,91l-27.07-7.42,13.44-49.05,27.06,7.42Z" transform="translate(106.03 27.41)"/><path class="cls-1" d="M430.65,52c5.64,2.51,9,4.82,11.06,8.17,3.57,5.67,1.54,11.36.64,13.38A14,14,0,0,1,426.28,82l5.68,26.3-8.57-3.81-4.86-24.93L417.27,79l-8.45,19-7.1-3.15,20.64-46.48ZM420,72.83l2.22,1c2,.87,10,4.18,13.27-3.2,2.91-6.55-3-9.93-6.5-11.48l-2.43-1.08Z" transform="translate(106.03 27.41)"/><path class="cls-1" d="M492.69,100.36c-1.95-7.35-6.07-10.66-8.5-12.24-9.27-6-20-3.24-26.08,6.16-5.85,9-3.86,20.22,5.23,26.11a20.19,20.19,0,0,0,14.7,2.55l-5,7.74a27.83,27.83,0,0,1-13.78-4.4A25.47,25.47,0,0,1,448,110.6,24.93,24.93,0,0,1,451.58,90c5.11-7.86,11.9-11.18,17.68-12.25,7.11-1.29,13.14.62,19,4.44a24.1,24.1,0,0,1,9.39,10.46Z" transform="translate(106.03 27.41)"/><path class="cls-1" d="M506.37,122.55l15.89,14.94,13.79-14.66,5.66,5.32-34.84,37.06-5.66-5.33,16-17.06-15.88-14.93-16,17-5.66-5.33,34.83-37.05,5.67,5.33Z" transform="translate(106.03 27.41)"/><path class="cls-1" d="M514.7,172.81l50.95-22.49-22.28,37.09,42.6-7.94L546.61,218.6l-4.53-6.5,22.18-21.78-35.54,6.74,18.78-30.93-28.26,13.19Z" transform="translate(106.03 27.41)"/><path class="cls-1" d="M574.07,251.3l-8.5-20L552.09,231l-3.28-7.71,59.44,2.23-40.11,43.23L564.86,261Zm5.51-5.74,12.9-13.69-18.93-.48Z" transform="translate(106.03 27.41)"/><path class="cls-1" d="M570,275.44l53.1-11.25L593,308.3l34.46-7.3,1.61,7.61-52.8,11.18,30.16-44.11L571.63,283Z" transform="translate(106.03 27.41)"/><path class="cls-1" d="M620.34,352.94a8,8,0,0,0,3.13-2.39,8.07,8.07,0,0,0,1.66-5.54c-.16-4.73-3-7.07-6.33-7-1.52,0-4.18.67-6,5.69l-1.89,5.17c-3.51,9.49-8.76,12.25-14.55,12.44-9.68.31-16.53-6.34-16.84-15.86-.19-5.87,1.91-9.45,4.73-12.13a16.41,16.41,0,0,1,9.77-4.58l1.92,7.64a11,11,0,0,0-6.41,2.34,8.06,8.06,0,0,0-2.84,6.73,8.18,8.18,0,0,0,8.81,8.11c5.18-.17,7.19-4.2,8.45-7.6l1.9-4.94c1.62-4.25,4.93-10.53,12.55-10.78,6.86-.22,13.58,4.91,13.89,14.43.17,5.49-1.79,8.68-3.11,10.32a17.16,17.16,0,0,1-5,4.05Z" transform="translate(106.03 27.41)"/><path class="cls-1" d="M300.41,564.66c.44,1.45.89,2.58,1.11,3.74.51,2.7-.82,3.94-3.42,2.94a51,51,0,0,0-14.63-3.05,3.67,3.67,0,0,0-2.84.68c-3.86,3.06-6.59,2.15-10.2-1.73-1.81-2-3.42-2-5.21.09-1.41,1.63-1.59,3.7-2,5.63-.53,2.38-2,3.55-4.09,2.95-1.89-.54-1.47-2.6-1.18-4.21a14.33,14.33,0,0,1,.52-1.69c1.43-4.32,1.43-4.31-2.69-6.58-1.16-.63-2.27-1.38-3.48-1.92-3-1.32-4.83-.73-6.17,2.22-1.22,2.65-1.87,2.86-3.89.39-3.47-4.24-8.71-6-13.53-8.35-.91-.44-1.86-.8-2.79-1.21s-1.8-.57-.64-2.22c1.32-1.89-.44-3.73-2.13-4.75-1.42-.86-3.33-1.05-4.33.63-1.15,1.95-2.19,1.13-3.4.33C210,544.92,205.78,540,201.74,535a9.81,9.81,0,0,0-3-2.89c-7.62-4-8-12.21-5.46-18.26,1.81-4.4,1.07-6.41-3.1-8.9-2.52-1.5-5-3.15-7.41-4.78a4.58,4.58,0,0,1-1.53-1.5,41.5,41.5,0,0,1-5.46-21.18c0-1.44,1.36-1.72,2.42-1.93a53,53,0,0,1,16.39-.33c3.38.4,6.05.4,8.59-3,5-6.75,10.92-12.85,16.42-19.25a24.32,24.32,0,0,0,5.73-12.76c.69-4.86,3.79-8.64,6.81-12.35a20,20,0,0,1,2.53-3c2.73-2.28,4.32-4.32,2.13-8.24-1.9-3.4.8-6.17,4.88-5.75.9.1,2.2.77,2.43-.7a2.14,2.14,0,0,0-1.52-2.26c-1.31-.51-2.48-1.42-3.82-1.87-7-2.33-8.83-8-8.6-14.38.15-4.17,0-8.5,1.55-12.56.84-2.25,1.44-4.62,2.48-6.76,1.39-2.83,2.3-5.56,1.09-8.7a3.52,3.52,0,0,1,.86-3.42c2.81-3.4,6.08-6,10.82-5.91a4,4,0,0,0,3-1.09c3.39-3,4.62-3.09,8.07-.25,1.9,1.57,2.46,1.13,3.12-1,1.57-5.08,3.43-6.89,6.4-6.41,2.16.35,4.38.58,6.49,1.06,7.17,1.63,14.18,1,21.34-.13,4.62-.7,9.43-1.2,13.34-3.43,4.34-2.47,6.67-1.71,10.16,1.52,4.95,4.59,11.13,7.73,16.92,11.27.34.21.71.65,1,.6,3.53-.47,5.76,1,7,4.32.28.73,1.15.76,1.84.24a7,7,0,0,0,.71-10.3,6,6,0,0,1-1.55-6c.46-2.18.95-3.8,3.86-4.12,2.38-.26,1.45-3.18,2-4.87a2,2,0,0,0-1.86-2.66c-7.29-.45-10.75-5.32-13.32-11.24-3.71-8.58-6-17.31-2.44-26.57,1.27-3.29,3.4-6.15,4.33-9.63a48.92,48.92,0,0,0,.24-24.91c-1.6-6.28-.93-11.73,3.41-16.66,3.77-4.3,4-9.29,2.67-14.57-1.09-4.36-2.37-8.7-3.09-13.13A19,19,0,0,1,344.87,201c2.27-2.86,4.88-5.46,7.34-8.18,5.46-6,10.54-4.1,14.5.44a32.19,32.19,0,0,1,8.38,22.69,25.79,25.79,0,0,1-1.91,7.93,20.25,20.25,0,0,0-.23,14.28c4.08,10.87,2.44,21.52-.9,32.17-2.4,7.64-1.9,15.45-1,23.24a45.77,45.77,0,0,1-1.44,16.63c-1.54,6.09-3.42,11.94-6.94,17.19-.17.25-.22.65-.45.79-3.52,2.18-4.4,5.46-4.58,9.41s-2.34,7.38-4.1,10.88c-.62,1.23-1.37,2.65-.37,4.29,2.65,4.36,3.63,9.33,4.38,14.25.6,4,1.72,7.91,1.39,12-.14,1.76-.6,2.78-2.51,3.15-2.54.49-4.61,4-4,6.45.32,1.34,1.19,2.32,2.66,1.64a7.49,7.49,0,0,1,3-.52,19.32,19.32,0,0,0,12.93-5c5.07-4.47,10.86-2.83,16.15.54,1.8,1.16,3.51,2.46,5.87,2,3.91-.77,6.75,1,8.9,4a3.57,3.57,0,0,0,3.33,1.58c2.33-.06,3.25-1.36,2-3.34a2.39,2.39,0,0,1,0-3.19,3.78,3.78,0,0,0,.36-4.22,4.74,4.74,0,0,1,.32-5.38c1.06.14,1,1.2,1.41,1.81.84,1.11,1.37,1.14,1.75-.32,2.16-8.21,7.8-13.77,14.37-18.62-2.23-1.78-2.64-1.83-4.76.29a8.4,8.4,0,0,1-3.1,1.8c-.1-.28-.36-.64-.27-.82a4.7,4.7,0,0,1,2.4-2.31c4.91-2,4.89-6.84,6.12-10.86a150.27,150.27,0,0,0,4.5-21.43c.46-3,1.73-3.07,3.9-1.88.89.48,1.75,1,2.83,1.65a78.49,78.49,0,0,0,2.76-15.27,24.92,24.92,0,0,0-2.08-12.63c-1.69-3.95.16-7.27,2.25-10.21a36,36,0,0,1,7.65-7.59,7.73,7.73,0,0,1,7.62-1.33c3.86,1.14,7.79,2.08,11.59,3.4,1.94.67,2.59,3,4.1,4.29.67.59,1,1.63,1.72,2.09,6,3.89,5.51,9.38,4.07,15.3-1.77,7.27-5.85,13.19-10.43,18.84A66.11,66.11,0,0,1,455.07,334c-2.16,1.65-1.75,5.15-2.91,7.7-3.22,7.06-5.61,14.57-11.43,20.16-3.23,3.09-6.43,3.63-10.51,1.64-.88-.43-1.57-.77-2.4.17a2.07,2.07,0,0,0-.15,3c4.81,5.58,2.55,11.5-1.18,15.92a49.21,49.21,0,0,1-11.72,10.13c-3.8,2.36-6.89,5.39-6.54,10.46a9.65,9.65,0,0,0,2.52,6c1.57,1.73,2.6,3.63,1.45,6.05-.29.61-.78,1.27-.25,2,1.29,1.82,1.11,3.93.92,5.92a63.93,63.93,0,0,1-2.26,12.8,17.73,17.73,0,0,0-.28,10.33,4.65,4.65,0,0,1-3.07,5.57c-4.89,2.05-8.29,6.1-12.59,8.94-2.72,1.8-5.68,3-8.48,4.63-1.51.85-1.76,1.24-.69,2.63,2.47,3.21,3.35,7.09,4.32,10.92a1.18,1.18,0,0,1,.05.61c-2.12,5.77.16,11.81-1,17.63a5.35,5.35,0,0,1-.79,2.27c-2.32,2.88-1,5.11,1.22,7.1,1.72,1.58,3.18,2.91,2.32,5.71-.64,2.07.27,4.27,1,6.37,2.78,8.43.94,16.4-3.25,23.78a111.73,111.73,0,0,0-8.12,19.15,65.45,65.45,0,0,0-2.42,8.39c-.93,4.61-4.19,6.7-8.86,5.53a6.22,6.22,0,0,0-6.36,1.7c-1.63,1.53-3.4,2.89-5.08,4.37-2.29,2-4.64,3.47-7.68,1.35-.65-.46-1.51-1.09-2.18-1-8.91,1.31-14.89-5-22-8.35-4.64-2.14-9.11-4.66-14.07-6.06-1.17-.33-2.26-.64-3.39.26-1.8,1.44-3.35.63-4.74-.78C303.37,566.08,302.46,564.94,300.41,564.66Zm51.77-163.21c-3.21-2.05-3.46-3.44-1.15-6.34.85-1.08,1.63-1.9-.46-2.6s-1.8-2.54-1.37-4.16c.22-.83.59-1.58-.19-2.22s-1.51-.27-2.26.15a26.15,26.15,0,0,0-7.88,6.59c-2.8,3.49-3.54,7.37-3.3,11.72.21,3.8-1.1,4.57-4.65,3.19-.37-.14-.72-.43-1.06,0-1.8,2.12-3.89.94-5.76.33a13.48,13.48,0,0,1-5.51-3.11,1.75,1.75,0,0,0-2.66-.13c-.87,1,.38,1.4.86,1.86,2,1.9,3.69,4.09,6.41,5.06,1.09.39,2.15,1.08,1.69,2.47s-1.7,1.53-3,1.48c-6.4-.25-12.83-.77-18.81,2.36a2,2,0,0,1-2.06-.2c-1.79-1.35-3.14-.39-4.13,1-1.48,2-3.6,3.12-5.59,4.37-5.5,3.48-7.17,3.2-11.35-1.71a2.27,2.27,0,0,0-2.55-1c-3,.35-3.7,1.79-3.73,4.42a8.87,8.87,0,0,1-1,3.78c-1.13,2.22-.22,3.83,1.19,5.41,1.7,1.9,3.32,3.88,5.14,5.66a3.08,3.08,0,0,1,1,3.55c-1.28,3.17,0,5.19,2.61,6.88,3.5,2.29,3.62,4.62.14,6.74a4.86,4.86,0,0,0-2.4,5.65,15,15,0,0,0,2.88,6c2,2.85,1.73,3.64-1.71,4.35-1.9.39-1.42,1.13-.93,2.27.4.93,1.26,1.26,1.89,1.89,2.4,2.37,5.09,4.76,4.45,8.52-.31,1.88,0,3,1.36,4.19s2.33,2.42.38,4c-1,.78-.42,1.56.19,2.38,1.46,1.95,2.91,4,3.09,6.5a12.46,12.46,0,0,0,2.68,6.79c2.27,3,3.79,6.42,5.52,9.72.37.69.84,1.2,1.68,1s.53-1,.57-1.54a12.56,12.56,0,0,0,0-1.84c-.59-6.36,2.73-10.72,7.78-13.6,4-2.24,8.46-3.51,12.71-5.26a7,7,0,0,1,3-.6,1.7,1.7,0,0,0,1.74-.85,57,57,0,0,0,4.49-6.9c.84-1.74.81-3.87,2.27-5.32a2.94,2.94,0,0,0,.85-3.09c-1.16-6.2.69-8.73,7-10.48a3.35,3.35,0,0,0,2.47-2.43c1-4.25,4.59-7.11,6-11.18a4.89,4.89,0,0,1,3.19-2.68c3.46-1.33,5.17-7.38,2.73-10.24-1.62-1.9-2.9-4.26-4.5-5.86-4.31-4.3-7.54-9.85-13.32-12.61-.69-.33-1.65-.73-.52-1.69,1.63-1.4,6.86-1,8.38.48a43.22,43.22,0,0,0,3.51,2.93c.59.47,1.22.82,1.89.15a1.46,1.46,0,0,0,0-2.19c-1.29-1.44-2.61-2.87-4-4.21-.75-.71-1.6-1.71-2.82-1.11-2.06,1-3.24-.37-4-1.7a3.3,3.3,0,0,1,.78-4.43,10,10,0,0,0,2.27-3.53,1.89,1.89,0,0,0-.49-2.7c-1.36-.92-1.46-1.19-.12-1.9C346.39,404.23,349.28,402.89,352.18,401.45Z" transform="translate(106.03 27.41)"/><path class="cls-1" d="M280.26,304.18c.14-7.34,2.13-13.26,3.54-19.31,2.27-9.7,1.14-19.18-1.83-28.65-2.52-8.05-4.5-16.27-4.55-24.83,0-4.62-.27-9.22.48-13.81a5.16,5.16,0,0,0-1-4.15c-3-4.08-2.57-5.75,1.56-8.58.64-.45,1.69-.77,1.5-1.68s-1.34-.61-2.1-.73c-1.94-.33-3-1.19-3-3.46.21-5.65,2.05-10.9,3.95-16.07a49.52,49.52,0,0,1,6.72-13.17c3.12-4.11,6.83-7,12.4-6.71,3.67.22,6.5,2.39,9.15,4.35,6.28,4.66,8.59,11.55,9.33,19.08a4.93,4.93,0,0,1-.68,3.2c-2.63,3.79-2,8.21-2.09,12.31-.11,4.4.4,8.82.31,13.29a18.76,18.76,0,0,0,1.22,7.28c1.23,2.94-.13,6.37-.64,9.56-.29,1.84-.54,3.48,1.07,5.05a3.91,3.91,0,0,1,.57,5.29c-3.56,5.06-3.8,11.19-5.61,16.8-2,6.14-1.58,12.63-2,19-.21,2.88,1.22,5.87,1.85,8.82,1.73,8.17,3.26,16.44,2.64,24.76-.7,9.42-3.51,18.07-13,22.74-2.63,1.31-4.71,1.62-6.84-1-1.88-2.34-3.81-4.68-4.27-7.59a8.27,8.27,0,0,0-2.64-4.58A18.66,18.66,0,0,1,281,309.46C280.85,307.36,280.05,305.31,280.26,304.18Z" transform="translate(106.03 27.41)"/><path class="cls-1" d="M237.64,231.32c.46,3.63-.35,8-1.18,12.23a5.19,5.19,0,0,0,.41,3.48c3.59,7.07,5.1,14.77,6.88,22.39a15.76,15.76,0,0,1,.34,5.42c-.75,5.46,4.7,8.49,4.8,13.35.2,9.2,4.94,17.48,5.13,26.64a3.62,3.62,0,0,1,0,1.23c-1.75,4.63.43,8.63,1.76,12.88,1.2,3.83,2.2,8-2,10.95a1,1,0,0,0-.11,1.4c1.59,2.59-.12,3.65-2.09,4.67-2.76,1.42-5.35,3-8.64,3.33a13.12,13.12,0,0,1-10.89-3.7,3.77,3.77,0,0,1,.21-5.89c1.31-1.14,1-1.94.42-3-5.17-9.21-7.2-19.35-9-29.6-.42-2.42-1.8-4.7-2.92-6.95a120.21,120.21,0,0,1-8-22.1c-.9-3.33-2.44-6.39-3.58-9.61a62.27,62.27,0,0,1-2.76-14.76,10.49,10.49,0,0,0-2.74-6.17,60.29,60.29,0,0,1-8.85-14c-1.95-4.32-.45-7.52,4.39-9.76a20.8,20.8,0,0,0,2.41-1.2c1.06-.65,1.45-.91.6-2.22a2.47,2.47,0,0,1,1-3.86c1.57-.81,1-1.51-.22-2.38-5.45-3.89-5.8-5.11-2.38-10.9,3.95-6.66,11.46-9.21,18.88-6.32,5.27,2.05,8.89,5.61,11.9,10.69A43.6,43.6,0,0,1,237.64,231.32Z" transform="translate(106.03 27.41)"/><path class="cls-1" d="M131.36,431.21c-8.11.06-13.51-4.18-17.21-11-4.62-8.49-9-17.1-14.67-25a9.17,9.17,0,0,1-1.09-8.05c1.59-5.76,3.84-11.1,9.79-13.75,4.91-2.19,9.91-1.47,14.64.27,9.59,3.53,16.71,10.06,21.84,18.9,1.3,2.24,1.12,4.49,1.11,6.8a6.73,6.73,0,0,0,1.49,4.4c2,2.63,4.19,5.22,4.53,8.8.45,4.74-2.12,8.21-4.9,11.36A20.29,20.29,0,0,1,131.36,431.21Z" transform="translate(106.03 27.41)"/><path class="cls-1" d="M147.83,430.47c.88,0,1.73-.16,2.44.8a24.84,24.84,0,0,0,7.23,6.42,2.48,2.48,0,0,1,1.31,2.23c-.12.75-1.22.85-2,1a10.24,10.24,0,0,1-12.48-6.76C143.76,432.46,145.65,430.46,147.83,430.47Z" transform="translate(106.03 27.41)"/><path class="cls-1" d="M7.44,472.23l6.18,20.43L32.48,487l2.2,7.29L-13,508.65l-2.21-7.28,21.93-6.63L.59,474.31l-21.93,6.63-2.21-7.29L24.1,459.24l2.2,7.29Z" transform="translate(106.03 27.41)"/><path class="cls-1" d="M43.12,530l-8.35-18-11.44,5.3,8.1,17.47-6.5,3-8.1-17.46L2.61,526.88l8.35,18-6.5,3L-7.09,523l45.16-20.94L49.62,527Z" transform="translate(106.03 27.41)"/><path class="cls-1" d="M57.39,540l-43,25.06-3.84-6.58,43-25.05Z" transform="translate(106.03 27.41)"/><path class="cls-1" d="M67.36,555.41c3.54,4.9,5.2,8.48,5.33,12.35.23,6.56-4.29,10.37-6,11.64a13.65,13.65,0,0,1-17.72-.82l-8.15,25-5.38-7.44,8.17-23.49-.79-1.08L26.27,583.54l-4.46-6.17,40.34-29.16ZM48.1,567.76l1.4,1.93c1.23,1.7,6.39,8.46,12.8,3.83,5.69-4.11,2.34-9.89.16-12.91l-1.53-2.12Z" transform="translate(106.03 27.41)"/><path class="cls-1" d="M89.25,583c4.4,4.67,6.57,8.16,6.6,12.65a12.75,12.75,0,0,1-4.45,9.64,10.83,10.83,0,0,1-5.31,3,8.16,8.16,0,0,1-5-.36,13.78,13.78,0,0,1,1.8,7.13,13,13,0,0,1-4.53,8.79,12.18,12.18,0,0,1-8.77,3.76c-5.75,0-10.49-4.05-13.1-6.82l-8.56-9.06,36.2-34.17Zm-30.93,29.3,3.17,3.37c1.49,1.57,4.11,3.81,6.59,4.15a7.17,7.17,0,0,0,5.7-2,7.46,7.46,0,0,0,2.42-5.05c0-2.91-1.91-5.28-3.75-7.24l-3.28-3.47Zm15.41-14.54,1.58,1.68c1.29,1.36,3.19,3,5.67,3.17a7.52,7.52,0,0,0,5.45-2.48,6.14,6.14,0,0,0,2.25-4.58c0-2.37-1.31-4.1-2.8-5.68L84.09,588Z" transform="translate(106.03 27.41)"/><path class="cls-1" d="M116.09,609c4.69,3.83,7.22,6.86,8.34,10.56,1.91,6.28-1.47,11.13-2.84,12.81a13.65,13.65,0,0,1-17.33,3.77l-1.42,26.29-7.11-5.8,1.83-24.8-1-.85L83.64,646.75l-5.9-4.81,31.47-38.57Zm-15.42,16.9,1.85,1.5c1.62,1.33,8.36,6.53,13.36.4,4.43-5.43-.29-10.15-3.18-12.51l-2-1.65Z" transform="translate(106.03 27.41)"/><path class="cls-1" d="M144.06,630l-15.45,25.71c-1.38,2.31-3,5.16-3.08,8.17a10.9,10.9,0,0,0,15.87,9.53c2.63-1.47,4.38-4.25,5.76-6.55l15.45-25.72,6.53,3.92-16.49,27.44A18.44,18.44,0,0,1,142,681.22,19.27,19.27,0,0,1,118.37,667a18.41,18.41,0,0,1,2.68-13.45l16.48-27.44Z" transform="translate(106.03 27.41)"/><path class="cls-1" d="M191.37,680.35l19.15,7.4-.14.35c-3.07,7.93-7.94,13.49-14.16,16.13-6.61,2.8-12.8,1.85-18.09-.2-6.75-2.61-10.8-6.42-13.35-12.45a26.48,26.48,0,0,1,44.49-27.51,22.57,22.57,0,0,1,4.83,9.86l-7.17,1.79a20.25,20.25,0,0,0-3.67-7.5,16.73,16.73,0,0,0-7.43-5.19,18,18,0,0,0-14.1.06c-4.25,1.88-8,6.09-10,11.11a20,20,0,0,0-.07,14.45c1.88,4.65,5.36,7.44,9.82,9.16a15,15,0,0,0,12-.09,13.35,13.35,0,0,0,6.94-6.36l-11.56-4.47Z" transform="translate(106.03 27.41)"/><path class="cls-1" d="M421.37,646.49c6.14-3.24,11.83-5.41,18.63-4.36,7.47,1.2,14,6,17.83,13.29s4.18,15.26.53,22.42c-3.23,6.34-7.73,9.48-13.87,12.73l-9.1,4.81-23.25-44Zm17.4,39,2.9-1.54c3.3-1.74,7.72-4.41,10-9.27A17.54,17.54,0,0,0,451.1,659a17.77,17.77,0,0,0-12.64-9.53c-5.29-.75-10.11,1.46-13.34,3.17l-2.91,1.54Z" transform="translate(106.03 27.41)"/><path class="cls-1" d="M459.57,620.41l6.81-1.77L469.64,639l-5.18,1.24Z" transform="translate(106.03 27.41)"/><path class="cls-1" d="M493.79,621.86l15.59-14.58-13.46-14.39,5.56-5.2,34,36.35-5.56,5.2-15.65-16.73-15.59,14.58,15.65,16.73-5.55,5.2-34-36.35,5.56-5.2Z" transform="translate(106.03 27.41)"/><path class="cls-1" d="M556.92,578.59l-12.82,17,6.3,11.59-4.95,6.55-27.1-51.52,56.25,12.93-5,6.56Zm-7.57-1.87-17.9-4.27,8.82,16.29Z" transform="translate(106.03 27.41)"/><path class="cls-1" d="M582.16,562.57l-47.49-23.82,50-15.32L553.86,508l3.41-6.8,47.23,23.68-50,15.33,31.09,15.59Z" transform="translate(106.03 27.41)"/><path class="cls-1" d="M564,480.56c1.92-6.67,4.32-12.27,9.8-16.43,6-4.54,14-5.9,21.93-3.6s13.89,7.59,16.51,15.18c2.33,6.73,1.46,12.15-.47,18.82l-2.86,9.89L561,490.6Zm40.14,14.56L605,492c1-3.59,2.19-8.62.3-13.67a17.55,17.55,0,0,0-11.73-10.46,17.76,17.76,0,0,0-15.63,2.47c-4.21,3.29-6,8.3-7,11.81l-.91,3.16Z" transform="translate(106.03 27.41)"/></svg>