<svg xmlns="http://www.w3.org/2000/svg" viewBox="0 0 2353.18 2609.47"><defs><style>.cls-1,.cls-2,.cls-4,.cls-5,.cls-6{fill:#fff;}.cls-2{font-size:200px;}.cls-2,.cls-3,.cls-4,.cls-5,.cls-6{font-family:FuturaPT-Medium, Futura PT;font-weight:500;}.cls-3,.cls-6{font-size:191.27px;}.cls-3{fill:#e72e62;stroke:#e72e62;stroke-miterlimit:10;stroke-width:4px;}.cls-4{font-size:195.75px;}.cls-5{font-size:201.32px;}</style></defs><g id="Layer_1" data-name="Layer 1"><path class="cls-1" d="M354.81-811.77c4.89,2.28,8,4.29,3.16,10.38-7,8.95-9.81,20.15-12.81,30.95-4,14.26-12.31,21.35-27.59,22.77a501.27,501.27,0,0,1-68.43,1.45c-11.48-.5-11.51-1.4-6.12-11.61,4-7.6,4.67-16.16,6-24.44,3.36-20.91,5.67-23.43,26.76-27.23a30.47,30.47,0,0,0,4.93-1.74Z" transform="translate(900.02 982.43)"/><path class="cls-1" d="M-743.1,204.11c2.14-.82,3.88-2.7,6.62-.54,10.18,8,22.57,11.26,34.6,15.12,13.94,4.47,22.23,12,23.33,28.36,1.58,23.67.13,47.16-.16,70.74,0,4.37-1.53,5.6-5.65,4.31-17.1-5.38-34.18-10.83-51.36-15.92-4.78-1.42-4.21-4.77-4.43-8.22-.82-12.93.75-26-2.55-38.79Z" transform="translate(900.02 982.43)"/><path class="cls-1" d="M1374.68,250.12c-3.66,10.15-1.16,20.95-3.27,31.32-1.19,5.78-2.73,6.38-8.12,4-10.26-4.52-21-8-31.54-11.79-10-3.55-17.27-9.7-19.24-20.47-5.19-28.44-2.92-57.19-4.52-87.77,14.81,8.35,28.78,12.22,43.31,15,12.26,2.32,20.11,10.7,23,23.16Z" transform="translate(900.02 982.43)"/><path class="cls-1" d="M711.34,1627.05c-1.88-8.91-8.44-15.19-13-22.53-3-4.87-4-7.93.84-12.44,11.81-11.09,22.29-23.55,34.79-34,7.76-6.47,14-5.37,21.18,1.44,7.49,7.11,6.33,13.13.3,19.93q-21,23.73-42,47.56Z" transform="translate(900.02 982.43)"/><path class="cls-1" d="M383.47,1188c2.89,23.66,16.21,39.49,30.26,55,2.47,2.73,7.57,5.28,1.89,10.09-27.27,23-54.8,45.58-90.07,55.7-19.31,5.54-38.85,6.18-58.64,3.49-6.27-.86-9.55-3.64-8.86-10.43,1.1-10.89,2.68-21.68,6.55-32,2.72-7.26,7.4-13.59,15.09-15.16,38.2-7.83,65.5-33,93.26-57.52C375.84,1194.64,378.77,1192.13,383.47,1188Z" transform="translate(900.02 982.43)"/><path class="cls-1" d="M512.54,1139.62c26.73.53,49.59,5.32,69.8,19.05,10.54,7.16,10.44,11.27-.73,16.9-23.64,11.88-48,21.46-74.55,25.36-19.87,2.92-39.13,9.22-53.78,24.44-3.66,3.8-7.18,3.7-11.31,1.34-16.88-9.67-28.17-24.17-36-41.65-2.42-5.42-.61-9.47,4.56-12.28C443.33,1155,477.23,1140.92,512.54,1139.62Z" transform="translate(900.02 982.43)"/><path class="cls-1" d="M233.26,1410.08c20.24-14.33,38-27,55.84-39.51,2.5-1.76,5.44-1.43,8.19-.66,33.88,9.56,68.23,17.88,98.33,37.38,22.51,14.59,23,20.4,3.41,38.83-1.54,1.45-3.07,2.93-4.73,4.23-31.73,24.93-26.5,21.25-53.83,3.23-20.17-13.3-42.89-21.09-65.52-29Z" transform="translate(900.02 982.43)"/><path class="cls-1" d="M145.13,1155.94a133.34,133.34,0,0,0-13.75,58.69c-.08,9.19-4.56,16.75-11.68,22.78-19.42,16.44-37,34.68-51.78,55.43-3.84,5.4-6.36,5.19-11.51,1.39-16.67-12.32-24.9-30.12-33-48.13a7,7,0,0,1,.62-7C51.37,1194.18,91.92,1168.45,145.13,1155.94Z" transform="translate(900.02 982.43)"/><path class="cls-1" d="M644.54,1183.91c-8.32,16.72-6.52,35.32-7.87,53.42-.67,8.89-3.63,15.14-11.54,19.74-32.08,18.68-65.56,34.17-101,45.25-2.2.69-4.69,2.88-6.85.8s-.17-4.55.57-6.82c4.62-14.22,5.09-29.11,6.76-43.79,1.33-11.69,6.1-21,16.71-26.51,31.31-16.19,63.73-29.9,96.58-42.62C639.64,1182.69,641.86,1181.61,644.54,1183.91Z" transform="translate(900.02 982.43)"/><path class="cls-1" d="M5.53,1282.41c6.87,9.93,12.83,20.31,21.62,28.46,6,5.51,11.59,12.09,19.29,14.47,10.4,3.2,14.49,10.72,16.45,19.83,5.16,24,15.54,44.91,32.5,62.9,8.59,9.1,6.44,14.35-6,17.34-13.36,3.22-27,4.44-40.76,5.2S25.8,1425.72,19.47,1414C.22,1378.44-7.12,1340.92.63,1300.86q1.61-8.29,3.35-16.54C4.09,1283.81,4.7,1283.4,5.53,1282.41Z" transform="translate(900.02 982.43)"/><path class="cls-1" d="M225.09,1155.19c36.4-2.63,66.75,11.76,94.45,33.55,9.42,7.41,9.39,9-.18,16.29a147.94,147.94,0,0,1-33.91,19.29,29.07,29.07,0,0,1-21.56.57c-16.85-5.81-34.63-6-52.19-7.31-9.48-.74-19-1.07-28.45-2.37-11.34-1.56-14.41-6.52-9.75-16.66,6-13.11,13.19-25.7,19.67-38.61,1.91-3.8,4.85-4.63,8.64-4.61C209.57,1155.36,217.33,1155.24,225.09,1155.19Z" transform="translate(900.02 982.43)"/><path class="cls-1" d="M372.49,1365c67.19-30.11,130.76-27.62,196,9.06-31.53,6.17-53,28.93-82,34.78-17.4,3.51-33.43,2.38-48.61-10-17-13.79-38.26-20.73-57.93-30.13C378.12,1367.84,376.26,1366.88,372.49,1365Z" transform="translate(900.02 982.43)"/><path class="cls-1" d="M676.2,1469.61c-9.53,1.09-17.53,1.78-25.45,3-11.69,1.75-23.14,5.62-31.7,13.46-12.46,11.4-14.91,11.26-29.26-3.22-18.55-18.71-35.24-39.42-58.39-53.18-7.11-4.23-3.25-9,1.32-12.5,19.09-14.73,40.27-19.35,63.66-12.68,13.39,3.82,25.31,10.52,36.3,18.92C649.34,1436.1,662.61,1452,676.2,1469.61Z" transform="translate(900.02 982.43)"/><path class="cls-1" d="M397.24,1490.55c15.94-17.92,31.6-35,48.89-50.56,5.54-5,12.12-6.21,19.71-4.6,12.05,2.54,24.26,4.45,36.63,1.45,3.72-.91,6.51,0,8.59,4,7.51,14.47,17.94,27,28.11,39.55,4,5,3.22,7.43-2,10.32-29.68,16.52-60.76,23.45-94.37,14.58C427.66,1501.24,412.17,1498.22,397.24,1490.55Z" transform="translate(900.02 982.43)"/><path class="cls-1" d="M773.6,1157.09c-.5,8.79-1.78,17.62-1.31,26.36.78,14.64-6.3,22.33-19.32,27.44-22.6,8.85-44.87,18.56-67.1,28.32-9,3.94-11.08.52-11.07-7.87,0-18.45,2.08-36.54,8.12-54,2.16-6.28,6.05-9.93,12.69-12.71,23.37-9.77,46.29-20.61,69.23-31.38,5.93-2.79,8.91-3.26,8.29,4.84-.49,6.3,0,12.68,0,19Z" transform="translate(900.02 982.43)"/><path class="cls-1" d="M165.87,1245.47c23.61,1,46.73,5.72,70,9,7.6,1.08,10.2,3.85,7.09,11.78-5.38,13.71-10.57,27.56-10.74,42.7-.09,7.76-6.42,6.43-11,5.91-19.58-2.25-38.76-6.68-57.84-11.52a353.79,353.79,0,0,1-46.13-14.81c-8.72-3.54-8.5-7.51-3-13.83a182.42,182.42,0,0,1,25.3-23.86C147.54,1244.75,156.65,1245,165.87,1245.47Z" transform="translate(900.02 982.43)"/><path class="cls-1" d="M664.75,1327.5c1.15,22.12-6.9,39.64-15.63,57-2.51,5-6,5.16-10.37,2.93-16.61-8.42-33.29-16.7-49.85-25.23-7.18-3.7-10.16-8.77-6-17.16,3.58-7.31,4-15.59,3.82-23.75-.19-7.79,3.07-13.87,10-17.26,17.33-8.52,34.85-16.68,52.31-25,6-2.84,7.41,1.62,8.62,5.76C661.82,1299.4,664.44,1314.25,664.75,1327.5Z" transform="translate(900.02 982.43)"/><path class="cls-1" d="M-642.43-198.25c7.37,12.9,19.19,21.86,30.41,31.46,8.81,7.54,11.89,17.1,9.12,28.52-6,24.72-15.94,48-25.11,71.65-2.15,5.54-4.78,6.06-9.33,2.58-15.73-12-29.21-26.52-43.58-40-2.19-2.07-2-4.05-1-6.59,11-27.42,20.75-55.36,33.69-82A9.75,9.75,0,0,1-642.43-198.25Z" transform="translate(900.02 982.43)"/><path class="cls-1" d="M452.26-737.09c-26.5-2.86-51.65-5.67-76.83-8.22-6.35-.64-7.17-2.6-4.37-8.37,5.68-11.68,10.48-23.78,15.67-35.69,4.78-11,12.06-17,25.18-16.41A781.85,781.85,0,0,1,490.57-798c7.95,1.17,10.22,3.44,3.64,10.06-8.11,8.17-11.73,19-16.09,29.4C473.06-746.42,465.25-737.57,452.26-737.09Z" transform="translate(900.02 982.43)"/><path class="cls-1" d="M-351.56-489.08c-.84-16.6-7.31-28.77-13.51-41-9.11-18-8.05-25.36,6.86-39C-338.7-587-316.88-602-294.95-619.07c6.38,17.54,13.59,33.77,16.27,51.5,1.23,8.17-.72,15.81-6.91,21.28C-306.91-527.47-328.53-509-351.56-489.08Z" transform="translate(900.02 982.43)"/><path class="cls-1" d="M766.1-712.22c-17.79,10.91-29.77,25.41-44,37.37-7.45,6.26-14.66,8.42-24.08,4.52-22.39-9.25-45-18-67.62-26.67-4.86-1.86-5-3.62-2.07-7.39,8-10.29,15.54-20.88,23.52-31.15s19.09-13.33,31.18-9.82C711.09-737.21,737.63-725.2,766.1-712.22Z" transform="translate(900.02 982.43)"/><path class="cls-1" d="M-441.31-401c-5.77-13.83-14.19-24.67-21.5-36.2-7.19-11.33-7.42-22.49,1-33.29,17-21.73,36.41-41.08,56.83-59.5,3.13-2.82,7.11-5.46,7.93,1.58,1.93,16.49,10.17,30.59,16.49,45.42,3.52,8.23,2.86,14.9-3.25,22.18C-401.44-439.81-420-419.76-441.31-401Z" transform="translate(900.02 982.43)"/><path class="cls-1" d="M1270.5,692.68c-2.71-13.24-12.41-21.21-21.16-29.83-18-17.73-19.58-23.7-9.91-46.69,9.27-22,19.34-43.73,29.75-67.13,15.24,15.31,31,28.08,42.72,44.9,2.53,3.64,3.79,7.09,1.95,11.75a654,654,0,0,1-40.54,84.75C1272.84,691.26,1271.72,691.73,1270.5,692.68Z" transform="translate(900.02 982.43)"/><path class="cls-1" d="M1128.57,923.74c-6.31-16-16.78-27.27-24.5-40.28-5.16-8.72-5.68-16.48-.57-25.67,14.42-25.91,33.8-48.37,49.28-74.86,5,15.5,14.66,26.3,23.64,37.52,13.89,17.37,14.24,24,1.55,42.29C1163.35,883.87,1148.17,904.57,1128.57,923.74Z" transform="translate(900.02 982.43)"/><path class="cls-1" d="M-738.73,339c15.92,7.67,32.54,11.48,49.7,13.75,8.38,1.11,12.38,8.72,14.94,16.35,8.54,25.51,10.33,52.45,16.64,78.44,1.19,4.9-1.62,6.39-6,5.8-15.67-2.14-31.55-3.11-46.84-7.58-11.9-3.47-15.69-13.43-18.07-24-4.55-20.3-6.65-41-9-61.63C-738.09,353.54-740.66,347.05-738.73,339Z" transform="translate(900.02 982.43)"/><path class="cls-1" d="M858.25-589.68c17.8-8.23,30.63-20.6,45.41-30.16,7-4.55,13-4.78,20.26-.18,25,15.75,47.74,34.57,72.35,52.77-16.88,11.1-32.36,22.06-50,29.38-4,1.64-8.17,3.16-12.28,1.19C906.16-550,882.33-568.89,858.25-589.68Z" transform="translate(900.02 982.43)"/><path class="cls-1" d="M-625.92,734c19,3.3,34,.37,49-4.12,12.22-3.66,21.1,2.74,28.56,11.45,11.73,13.69,21,29.15,30.13,44.57,4.73,8,15.67,16.3,12.19,23.86-2.86,6.2-16.65,4.1-25.51,6.09-6.16,1.39-12.85,1-18.72,3-19.09,6.68-29-1.54-37.34-18.39C-598.49,778.55-612,757.89-625.92,734Z" transform="translate(900.02 982.43)"/><path class="cls-1" d="M1208.82,815c-3.54-13.07-13-22.19-21.76-31.54-11.64-12.35-15-24.77-6.69-40.95,10.12-19.7,18.84-40.13,29.69-59.51,3.21-5.72,6-6.7,11.08-2,12.46,11.51,24.18,23.65,34.34,37.26,2.42,3.24,3.93,6.36,2,10.64-13.14,29.68-28.07,58.36-46.44,85.17C1210.76,814.46,1209.88,814.53,1208.82,815Z" transform="translate(900.02 982.43)"/><path class="cls-1" d="M-163.32,1184.55c-6.89.15-12.9-2-18.69-4.58-21.63-9.65-41.76-22-61.54-34.9-5.65-3.7-6.48-6.62-.61-10.8,14.65-10.42,29.58-20.48,43.13-32.36,2.93-2.56,5.66-1.93,8.72-.3,23.6,12.64,47.37,25,70.81,37.92,9.55,5.27,9.22,6.4.14,13.28-7.94,6-14.33,13.52-20.46,21.31C-147.33,1181.13-154.25,1185.58-163.32,1184.55Z" transform="translate(900.02 982.43)"/><path class="cls-1" d="M883,1063.54c-.59,18.25,5.67,32.32,9,47,3.3,14.53-1.1,26.14-13.51,33.69-20.74,12.6-42,24.3-63.08,36.41-4.86,2.8-7.29,2.29-8.12-4.09-2.32-17.79-5.2-35.5-7.94-53.23-.46-3-.06-5.42,2.78-7.26C828.38,1099.1,854.57,1082,883,1063.54Z" transform="translate(900.02 982.43)"/><path class="cls-1" d="M-623.67,582c-13.22-6.16-27.08-3.63-40.66-3.8-19.95-.25-24.24-2.78-31.28-21.51a504.2,504.2,0,0,1-20.72-68.57c-1.71-7.72,1-9.51,7.82-8.84,17.87,1.73,35.51,4.92,53.08,8.5,4.34.88,8.11,3.63,9,8.1,5.16,27,16.59,52.24,23,78.89C-623,576.75-621.88,578.72-623.67,582Z" transform="translate(900.02 982.43)"/><path class="cls-1" d="M1288.68,36.87c14.66,7.1,28.52,8.65,42.75,8.56C1345,45.34,1354,52,1358.27,65c6.51,19.92,8.36,40.67,10.89,61.27,1.17,9.57,3.91,19.16,1.95,30.08-12.59-9.46-27-11.48-41-14.14-15.13-2.87-24.17-10.21-26.66-26.47C1299.51,90.09,1294,64.65,1288.68,36.87Z" transform="translate(900.02 982.43)"/><path class="cls-1" d="M494.49-733.95c11.34-5,14.47-13.38,18.37-21.13,2.69-5.35,5-10.86,7.86-16.14,5.8-10.88,15.14-15.81,27.2-13.94,28.94,4.5,57,12.84,85,21.11.92.27,1.69,1.09,3.57,2.35C622.92-755.17,616.57-744,611.1-732c-6,13.15-16.91,18.67-30.85,17.69C551.61-716.27,524.3-724.16,494.49-733.95Z" transform="translate(900.02 982.43)"/><path class="cls-1" d="M1313.8-113.79c-23.26-2.4-44.5-4.54-65.73-6.83-3.67-.39-6.3-2.39-8.06-5.95-11.23-22.67-22.63-45.27-32.22-68.71-2.88-7.06-2.41-10.67,6.91-11,13-.51,25.82-2.9,38.75-4.26,12-1.26,21,4,25.66,14.6C1290.83-169.35,1301.79-142.38,1313.8-113.79Z" transform="translate(900.02 982.43)"/><path class="cls-1" d="M-75.62,1163.09c.61.15,3.32.83,6,1.56,25.14,6.79,49.08,17,73.62,25.54,4.72,1.64,6.56,3.35,2,7.6-10.8,10.15-19.68,22-29.09,33.39-7.39,8.93-15.4,12.37-27.64,7.92q-35.67-13-70.59-27.71c-4.43-1.87-9.06-3.41-3.83-9.42,12.07-13.86,25.29-26.41,40.42-36.89C-82.59,1163.64-80.4,1162.67-75.62,1163.09Z" transform="translate(900.02 982.43)"/><path class="cls-1" d="M1125-347.31c-6,.8-10.25-2.16-13.83-6.32-16.73-19.48-33.35-39-50.13-58.47-3.35-3.86-3.54-6.13,1.7-8.34,12-5.06,23.69-10.65,35.59-15.84,13.35-5.82,24.71-2.52,34.19,8.09,17.13,19.18,31.77,40.31,47.41,60.65,2.07,2.68,3.2,5.05-1,6.16C1160.87-356.67,1143.39-350.08,1125-347.31Z" transform="translate(900.02 982.43)"/><path class="cls-1" d="M-553.75,852.33c16.37,3.43,28.1-1.83,39.65-6.81,17.51-7.55,32-4.28,44.67,9.83,14.4,16,27.64,32.88,40.61,50,5.48,7.24,4.2,10.13-4.93,12.36-14.64,3.57-28.86,8.86-43.27,13.41-4.57,1.44-9,1.85-12.81-1.91C-512.79,906.31-533.27,881.37-553.75,852.33Z" transform="translate(900.02 982.43)"/><path class="cls-1" d="M1350,466.61c-2.89,22.21-7.66,43.51-12.77,64.73-2,8.55-4.68,17-6.85,25.48-1.25,4.89-3.56,5.42-7.52,2.7-16.33-11.21-31-24.36-45.85-37.44-3.46-3.07-2.54-6.21-1.74-9.57q9.21-39.06,18.53-78.08c.83-3.49,1.54-8.07,6.52-3.94,12.35,10.24,27.66,15.45,40.73,24.4C1345.32,457.84,1349.88,460.92,1350,466.61Z" transform="translate(900.02 982.43)"/><path class="cls-1" d="M-679.1,197.27c-11.07-10.71-22.54-13.3-33.52-17-19.83-6.57-24.72-13-24.41-34,.41-28.18,5.5-55.92,8.57-86.42,13.65,14.39,29.92,21,45.63,28.65a18.6,18.6,0,0,1,10.59,15C-669.14,134.43-675.68,164.48-679.1,197.27Z" transform="translate(900.02 982.43)"/><path class="cls-1" d="M-644.92-19.6c.18,10.27-2.58,20.17-4.94,30.07-3.91,16.44-7.82,32.86-9.63,49.7-.31,2.84-.41,6.11-3.41,7.15-3.76,1.31-4.1-2.71-5.83-4.68-7-7.92-16.72-11.51-25.79-16.08-21.86-11-24.92-16.92-20.31-41,4.31-22.49,11.25-44.3,17.24-66.35,1.66-6.07,4.2-8.8,9.86-3.3,8.68,8.43,19.21,14.2,29.67,20.05C-648.52-38.71-643.77-30.76-644.92-19.6Z" transform="translate(900.02 982.43)"/><path class="cls-1" d="M-498.9-431.76c11,16.32,22.19,30.78,29.68,47.63,1.94,4.38,3,8.81.79,13.23-14.14,28.06-33,52.92-53.06,80-.94-14-8-22-15.77-29.7a70.56,70.56,0,0,1-9.93-12.27c-9.61-15.08-9.42-20.9,1.08-35.2C-530.72-389-515.15-409.87-498.9-431.76Z" transform="translate(900.02 982.43)"/><path class="cls-1" d="M1096.2-472.62c-15,8-29,16.4-44.54,21-11.38,3.33-22.38,1.15-32.15-5.88-18.13-13-33.55-29-48.76-45.21-5.38-5.73-4.26-8.75,2.92-12.32,12.9-6.4,25.12-14.16,37.62-21.36,6.19-3.56,11.62-2.87,17.48,1.54C1053.11-516.61,1073.58-494.27,1096.2-472.62Z" transform="translate(900.02 982.43)"/><path class="cls-1" d="M1133.79-319.46c20.14.47,37-5,53.83-9.72,8.66-2.44,15-1.05,20.43,6.11,16.85,22.3,30.31,46.62,42.8,71.53,3,6,1.92,8.69-5.53,9.19-12.63.84-25.26,2.39-37.76,4.4-13.44,2.17-23-2.31-30.44-13.72C1162.93-273.49,1150.72-296.54,1133.79-319.46Z" transform="translate(900.02 982.43)"/><path class="cls-1" d="M745.65-650.15c14.12-14,26.55-27.48,40.69-39.23,6.15-5.11,11.77-6.07,19.2-2.32,23.28,11.76,46.4,23.79,68.25,38.07,9.37,6.12,9,7.28.41,13.81-10.08,7.69-19.9,15.73-29.55,24-6.88,5.87-13.74,7-22.35,3.59C796.05-622.73,771.67-636.81,745.65-650.15Z" transform="translate(900.02 982.43)"/><path class="cls-1" d="M1352.86,19.66C1339.23,12,1327,11.22,1314.63,11c-25.38-.53-29.56-3-37.9-26.47-7-19.84-12.63-40.2-19.23-60.21-1.74-5.28,0-7,4.8-7.82,18-3,35.76-1.55,53.39,2.43,3.39.76,6.86,2.14,8.3,5.86C1335.62-45.12,1344.69-14.24,1352.86,19.66Z" transform="translate(900.02 982.43)"/><path class="cls-1" d="M910.78,1063.13c-.13-12.06,3.6-19.76,10-25.52,18.62-16.7,37.66-32.94,56.6-49.28,3.12-2.69,5.73-4,7,2.1,2.35,11.49,8,21.77,13.3,32.11,7.1,13.94,5.81,26.41-5.42,37.61-18,18-38.63,32.85-59.09,47.85-5.55,4.08-9.4,4.21-9.6-4.65-.22-9.26-3.78-17.8-7.64-26.17C913.43,1071.76,910.75,1066.34,910.78,1063.13Z" transform="translate(900.02 982.43)"/><path class="cls-1" d="M1100.48,947.55c.43,9.87-4.48,17.61-10.37,24.75-14.9,18.06-33.55,32.14-51,47.45-3.45,3-5.25,2.21-6.95-1.65-5.82-13.19-12.63-26-17-39.77-3-9.55-.94-18.15,4.84-25.91,15.41-20.71,33.61-38.92,51.88-57,2.83-2.81,5.85-5.12,6.75,1.53,1.37,10.18,7.35,18.12,12.82,26.33C1096.32,930.62,1100.77,938.21,1100.48,947.55Z" transform="translate(900.02 982.43)"/><path class="cls-1" d="M-249.47-571.14c1.21-16.73-5.34-29.78-9-43.53-4.76-17.89-3.36-22.2,11.31-33.34C-226.64-663.57-204-675.7-182-689c4.78-2.9,7.06-2,7.59,3.43,1.79,18.18,5.46,36.17,5.35,54.56,0,4.57-1.11,8.16-4.79,11C-197.24-601.91-223.62-588.63-249.47-571.14Z" transform="translate(900.02 982.43)"/><path class="cls-1" d="M-568.49,700.88c-14.27-4-25.62-1.44-37,.83-25.72,5.13-32.93,2-44.33-21.64-7.93-16.45-15-33.34-21.79-50.3-6.28-15.7-3.91-19.13,12.59-19.08,14.08,0,28.15.89,42.22,1.32,3.3.1,6.14.55,7.89,4C-595,643.19-581.89,670.75-568.49,700.88Z" transform="translate(900.02 982.43)"/><path class="cls-1" d="M-581.85-182.08c-14.87-14.72-29.6-28.29-41.85-44.33-3.6-4.7-2.86-8.81-.56-13.63,13.26-27.69,29.62-53.62,45.69-81.81,8.82,15.88,20.51,27.86,31.38,40.55,6.92,8.08,4.37,18.16,1.07,27.27C-555.16-229-569.39-206.65-581.85-182.08Z" transform="translate(900.02 982.43)"/><path class="cls-1" d="M-16.77-697.94c1.53-18.63,2.84-34.06,4.07-49.49C-12-755.61-8.45-760.3.05-762.87c25.24-7.61,50.41-15.42,76.11-21.41,7.55-1.76,12.18-1.58,7.69,8.26-5.72,12.55-3.87,26.32-5.21,39.55-1.07,10.6-5.1,17.25-16,20.6-22.82,7-45.37,15-67.91,23C-13.6-690-18.41-690.53-16.77-697.94Z" transform="translate(900.02 982.43)"/><path class="cls-1" d="M105.65-724.94c7.64-12.68,8.07-25.29,8.25-38,.3-20.55,6-27.9,25.78-32.53,25.38-5.93,51.41-7.89,77.09-11.93,5.45-.86,6.61,1.31,4.36,5.73-5.68,11.18-7.94,23-8.89,35.49-1,13.69-10.82,20.7-22.81,24.87C171.38-735,152.34-733.5,133.71-730,124.82-728.35,115.91-726.79,105.65-724.94Z" transform="translate(900.02 982.43)"/><path class="cls-1" d="M1311.5,294.56c12.35,11.52,25.56,16.52,40.23,20s18.64,17.58,18.51,31.11a294.57,294.57,0,0,1-9.9,72.94c-1.48,5.6-3.12,9.13-9.57,3.68-8.67-7.31-19.46-11.16-29.76-15.66-11.94-5.21-17.83-13.81-17.38-27.2C1304.54,351.68,1308.73,324.27,1311.5,294.56Z" transform="translate(900.02 982.43)"/><path class="cls-1" d="M-47.62-718.95c.16,37.72.24,37.89-33.27,54.05-15.5,7.48-31.33,14.3-47.13,21.12-5.28,2.28-9,2.36-8.39-5.93.76-9.82-2.18-19.48-4.3-29.11-3.91-17.79-1.65-23.2,13.63-32.27,20.9-12.39,42.51-23.38,65.26-32,11.36-4.31,12.11-3.76,13.61,8.33.22,1.75.44,3.5.49,5.26C-47.63-726-47.65-722.47-47.62-718.95Z" transform="translate(900.02 982.43)"/><path class="cls-1" d="M-309.64,1030.92c6.22-.47,11.89,1.51,17.14,4.46a391.47,391.47,0,0,1,58.83,41c5.17,4.3,8.13,8-1.63,10.9-8.26,2.49-13.72,9.61-19.8,15.46-14.42,13.87-24.36,15.6-41.65,5.66-21.47-12.33-40.53-28-58.95-44.47-4.49-4-6.48-7.43,1.56-10.2,9.74-3.36,17.74-10,26.11-15.83C-322.52,1034.08-316.76,1030.68-309.64,1030.92Z" transform="translate(900.02 982.43)"/><path class="cls-1" d="M-385,1029.25c-5.43.17-11.88-3.54-17.71-8.1-19.75-15.44-37.1-33.37-53.48-52.27-4.33-5-5.39-8,2.84-10.64,13-4.21,25.43-10,38-15.34,6.79-2.88,12.75-2.13,18.75,2.27a423.37,423.37,0,0,1,59.29,52.2c4.53,4.84,5.8,7.65-2.05,10.93-8.66,3.62-16.47,9.31-24.65,14.09C-369.8,1025.77-375.61,1029.09-385,1029.25Z" transform="translate(900.02 982.43)"/><path class="cls-1" d="M247.85,1356.41c-16.59,14.77-31.85,28.31-47,41.92-3.48,3.11-7,4-11.59,2.3-15.24-5.6-31-6.2-46.93-3.92-6.91,1-12.74-.89-16.9-6.41-8.91-11.83-17.43-24-26.34-35.77-3.22-4.26-1.8-6.15,2.6-7.38,3.73-1,7.41-2.91,11.17-3.05,42.35-1.56,84.64-1.83,126.06,9.3C241.24,1354,243.54,1355,247.85,1356.41Z" transform="translate(900.02 982.43)"/><path class="cls-1" d="M57.13,1463c15.69-1,28.23-1.54,40.41-4.82,9.22-2.49,18.35-5.26,26.42-10.43,19.87-12.73,40.49-8.12,61.11-2.93,5,1.25,6.19,4.94,4.94,9.93-3.57,14.3-9.79,27.2-20.14,37.77-7.62,7.79-17.36,10.91-28,9.58C110.53,1498.21,84.7,1482.48,57.13,1463Z" transform="translate(900.02 982.43)"/><path class="cls-1" d="M-85.33,1463.17a190.73,190.73,0,0,1,53.69-55.89c7.57-5.27,12.07-3.42,15.91,3.89,2.46,4.67,5,9.31,7.38,14,4.39,8.47,9.93,16.14,15.64,23.74,4.31,5.73,14.58,9.53,12.85,16.23-1.52,5.88-10.29,9.92-15.91,14.7-15.56,13.21-16.07,13.79-31.89.66C-44.5,1466.51-62.64,1458.76-85.33,1463.17Z" transform="translate(900.02 982.43)"/><path class="cls-1" d="M197.53,1511.85c5.3-6.89,9.54-12,13.32-17.4,10.49-15,15.93-31.35,11.22-49.76-1.3-5.1-.43-7.86,5.19-6.71a599.66,599.66,0,0,1,83,23.73c4.73,1.7,3.8,4.34.61,6.71C277.8,1493,243.56,1514.7,197.53,1511.85Z" transform="translate(900.02 982.43)"/><path class="cls-1" d="M442.07,1314.29c-18.87,1.6-32.56,0-46.27-.9-7.2-.47-9.28-4-3.7-9.06,27.39-25,57.25-45.6,94.57-53,6.79-1.35,8.33,1.14,7.46,7a213.72,213.72,0,0,1-10.82,44c-1.88,5-5,7.75-10.6,8.93C460.89,1313.78,448.85,1313.28,442.07,1314.29Z" transform="translate(900.02 982.43)"/><path class="cls-1" d="M672.06,1500.3a67.9,67.9,0,0,1,29.92,9.46c4.75,2.75,4.09,5.51.52,9q-18.56,18-38.5,34.37c-4.08,3.34-7.27,3.4-10.83-.37-7.71-8.17-15.61-16.16-23.21-24.43-2.21-2.41-5.34-5.38-.72-8.67A119.88,119.88,0,0,1,672.06,1500.3Z" transform="translate(900.02 982.43)"/><path class="cls-1" d="M-86,1493.11c18.84-.42,32.29,7.78,44.19,19.58,3,3,2.84,5.06,0,7.84-7.77,7.63-15.49,15.32-23.07,23.15-3.66,3.78-6.89,3.91-10.74.28q-19.18-18.07-38.59-35.92c-3.85-3.54-2.73-5.71,1.4-7.67C-103.87,1496.13-94.89,1492.11-86,1493.11Z" transform="translate(900.02 982.43)"/><path class="cls-1" d="M-110.82,1592.08c-2.16,6.61-6.93,13.45-13,19.45-2.4,2.39-4.46.57-6.32-1.1-16.56-14.84-29.5-32.87-43.84-49.68-2.23-2.62-1.24-4.2,1.05-5.93,5-3.82,10-7.67,14.9-11.69,2.61-2.16,4.53-2.27,7.06.31,12,12.28,24.31,24.33,36.38,36.58C-111.8,1582.81-109.82,1586.17-110.82,1592.08Z" transform="translate(900.02 982.43)"/><path class="cls-1" d="M719.94,1539.54a134.91,134.91,0,0,1-41.05,38.66C689.74,1562.39,702.54,1548.6,719.94,1539.54Z" transform="translate(900.02 982.43)"/><path class="cls-1" d="M-92.89,1566.84a151.55,151.55,0,0,1-39.58-39.34A143.48,143.48,0,0,1-92.89,1566.84Z" transform="translate(900.02 982.43)"/><text class="cls-2" transform="translate(501.42 1184.95) rotate(-86.94)">S</text><text class="cls-2" transform="translate(506.56 1078.39) rotate(-77.67)">C</text><text class="cls-2" transform="matrix(0.41, -0.91, 0.91, 0.41, 529.49, 959.45)">O</text><text class="cls-2" transform="matrix(0.57, -0.82, 0.82, 0.57, 594.69, 813.29)">U</text><text class="cls-2" transform="translate(672.61 703.62) rotate(-46.6)">T</text><text class="cls-2" transform="matrix(0.78, -0.63, 0.63, 0.78, 734.69, 637.61)">S</text><text class="cls-2" transform="translate(821.5 570.48) rotate(-32.32)"> </text><text class="cls-2" transform="translate(867.45 541.15) rotate(-27.03)">J</text><text class="cls-2" transform="translate(933.58 505.28) rotate(-18.87)">A</text><text class="cls-2" transform="translate(1059 461.63) rotate(-7.78)">N</text><text class="cls-2" transform="translate(1211.78 444.73) rotate(0.32)"> </text><text class="cls-2" transform="translate(1264.95 443.73) rotate(6.86)">B</text><text class="cls-2" transform="translate(1373.6 457.33) rotate(15.32)">E</text><text class="cls-2" transform="matrix(0.91, 0.41, -0.41, 0.91, 1474.11, 484.7)">R</text><text class="cls-2" transform="translate(1575.45 528.94) rotate(32.99)">C</text><text class="cls-2" transform="matrix(0.73, 0.68, -0.68, 0.73, 1681.52, 597.71)">H</text><text class="cls-2" transform="translate(1778.26 685.93) rotate(55.13)">M</text><text class="cls-2" transform="matrix(0.39, 0.92, -0.92, 0.39, 1874.27, 827.36)">A</text><text class="cls-2" transform="matrix(0.21, 0.98, -0.98, 0.21, 1926.9, 949.33)">N</text><text class="cls-2" transform="translate(1956.12 1098.04) rotate(88.17)">S</text><path class="cls-1" d="M323.06,741.31a99.49,99.49,0,0,1,2.91,9.81c1.34,7.09-2.14,10.33-9,7.72-12.41-4.74-25.24-7.06-38.39-8-2.56-.19-5-.17-7.46,1.8-10.1,8-17.28,5.61-26.73-4.55-4.76-5.12-9-5.17-13.67.23-3.71,4.28-4.19,9.72-5.33,14.77-1.4,6.23-5.32,9.31-10.73,7.74-4.95-1.43-3.85-6.82-3.09-11a32.54,32.54,0,0,1,1.36-4.45c3.74-11.31,3.74-11.3-7.07-17.24-3.05-1.67-6-3.64-9.11-5-7.78-3.45-12.67-1.92-16.21,5.82-3.18,7-4.89,7.5-10.2,1-9.1-11.12-22.84-15.87-35.48-21.9-2.4-1.14-4.89-2.1-7.32-3.18-2.83-1.27-4.71-1.5-1.69-5.81,3.47-5-1.14-9.78-5.58-12.47-3.72-2.26-8.74-2.76-11.35,1.65-3,5.12-5.76,3-8.92.86-14.24-9.52-25.22-22.39-35.8-35.55-2.38-3-4.46-5.83-7.85-7.59-20-10.42-20.87-32-14.33-47.9,4.76-11.55,2.8-16.82-8.12-23.34-6.63-3.95-13-8.27-19.45-12.55a12.23,12.23,0,0,1-4-3.92C1.06,550.87-4.37,532.48-3.85,512.61c.1-3.75,3.56-4.5,6.36-5.05,14.27-2.79,28.64-2.54,43-.86,8.87,1,15.87,1.05,22.54-7.89,13.21-17.68,28.64-33.7,43.07-50.48a63.73,63.73,0,0,0,15-33.46c1.83-12.76,10-22.67,17.86-32.39,2.19-2.69,4-5.78,6.64-8,7.16-6,11.35-11.31,5.59-21.62-5-8.89,2.1-16.18,12.8-15.06,2.37.25,5.77,2,6.39-1.83.37-2.31-1-4.8-4-5.94-3.46-1.34-6.52-3.73-10-4.9-18.41-6.13-23.18-21-22.58-37.74.4-10.93.14-22.29,4.09-32.94,2.19-5.91,3.76-12.11,6.51-17.73,3.62-7.43,6-14.58,2.85-22.83-1.2-3.13.2-6.46,2.26-9,7.36-8.91,15.95-15.82,28.37-15.51a10.61,10.61,0,0,0,8-2.86c8.87-7.87,12.1-8.1,21.17-.64,5,4.1,6.43,2.95,8.19-2.73,4.11-13.33,9-18.08,16.76-16.82,5.69.92,11.51,1.53,17,2.79,18.81,4.27,37.21,2.5,56-.35,12.11-1.83,24.72-3.15,35-9,11.38-6.48,17.51-4.49,26.66,4,13,12.05,29.19,20.27,44.39,29.56.89.55,1.86,1.69,2.66,1.59,9.28-1.24,15.11,2.7,18.39,11.31.74,1.92,3,2,4.84.64,8.3-6.25,9.29-19.48,1.86-27-4.44-4.51-5.37-9.66-4.08-15.63,1.23-5.7,2.5-10,10.13-10.8,6.24-.67,3.8-8.34,5.32-12.78a5.3,5.3,0,0,0-4.88-7c-19.1-1.17-28.19-13.95-34.92-29.49-9.75-22.5-15.72-45.4-6.4-69.69,3.31-8.63,8.91-16.12,11.34-25.27A128,128,0,0,0,420.94-56c-4.2-16.49-2.44-30.77,8.92-43.71,9.89-11.27,10.48-24.38,7-38.21-2.86-11.45-6.21-22.83-8.12-34.44-2.43-14.83,1.57-28.58,10.91-40.33,6-7.51,12.81-14.33,19.26-21.46C473.25-250,486.6-244.95,497-233c14.78,17,22.63,36.73,22,59.54-.21,7.31-2.65,14.11-5,20.8-4.44,12.54-5.29,25-.61,37.45,10.71,28.5,6.39,56.45-2.36,84.37-6.29,20.06-5,40.55-2.67,61,1.68,14.86-.1,29.15-3.77,43.63-4.05,16-9,31.32-18.21,45.08-.44.66-.59,1.7-1.18,2.07-9.25,5.72-11.54,14.31-12,24.69s-6.15,19.35-10.76,28.54c-1.63,3.23-3.58,6.95-1,11.25,7,11.43,9.52,24.46,11.48,37.38,1.58,10.43,4.52,20.76,3.65,31.55-.37,4.63-1.57,7.3-6.6,8.27-6.64,1.28-12.08,10.41-10.53,16.91.84,3.52,3.12,6.09,7,4.32a19.38,19.38,0,0,1,7.79-1.38c12.86-.44,23.63-3.92,33.93-13,13.3-11.73,28.49-7.44,42.35,1.42,4.73,3,9.23,6.45,15.41,5.22,10.25-2,17.71,2.6,23.34,10.54,2.33,3.28,5.12,4.21,8.74,4.13,6.12-.13,8.53-3.55,5.24-8.75-2.12-3.34-2.08-5.11.06-8.37,2-3.07,3.39-7,1-11.08-2.77-4.67-2.28-9.53.83-14.1,2.79.36,2.49,3.16,3.7,4.75,2.21,2.9,3.58,3,4.59-.85,5.67-21.53,20.46-36.12,37.7-48.84-5.85-4.67-6.93-4.79-12.5.78-2.41,2.4-5.18,3.55-8.13,4.7-.25-.73-.94-1.68-.7-2.15a12.48,12.48,0,0,1,6.29-6.07c12.87-5.26,12.82-17.92,16.06-28.46,5.65-18.35,8.89-37.28,11.81-56.21,1.2-7.77,4.54-8.07,10.23-5,2.31,1.27,4.57,2.66,7.43,4.33,4-13.22,5.87-26.5,7.22-40a65.39,65.39,0,0,0-5.45-33.13c-4.44-10.36.42-19.06,5.91-26.78S701.59,1.42,709.24-4.43c6.6-5.05,12.69-5.67,20-3.5,10.12,3,20.42,5.48,30.39,8.93,5.09,1.76,6.81,7.78,10.76,11.25,1.76,1.55,2.62,4.27,4.52,5.5,15.81,10.21,14.46,24.6,10.68,40.13-4.64,19.06-15.35,34.59-27.36,49.43a174.41,174.41,0,0,1-29.47,29c-5.66,4.34-4.57,13.53-7.63,20.21-8.46,18.52-14.72,38.22-30,52.87-8.47,8.12-16.85,9.53-27.56,4.31-2.32-1.13-4.11-2-6.29.44-2.43,2.72-2.54,5.42-.39,7.91,12.61,14.63,6.67,30.16-3.11,41.75A128.77,128.77,0,0,1,623,290.4c-10,6.19-18.06,14.13-17.15,27.43a25.23,25.23,0,0,0,6.61,15.8c4.13,4.55,6.82,9.52,3.8,15.9-.76,1.6-2,3.31-.65,5.26,3.38,4.77,2.91,10.31,2.4,15.54-1.11,11.36-2.68,23.46-5.91,33.55s-2.92,17.93-.75,27.11c1.66,7-2.21,12.18-8,14.62-12.84,5.38-21.76,16-33,23.45-7.13,4.71-14.91,8-22.25,12.13-4,2.24-4.61,3.26-1.8,6.91,6.48,8.4,8.79,18.6,11.31,28.64a3.06,3.06,0,0,1,.15,1.59c-5.57,15.16.42,31-2.72,46.26-.43,2-.83,4.41-2.07,5.95-6.11,7.55-2.51,13.41,3.19,18.62,4.52,4.14,8.33,7.65,6.07,15-1.67,5.42.72,11.18,2.54,16.7,7.29,22.12,2.46,43-8.54,62.4-9.1,16-15.36,33-21.3,50.22a170.1,170.1,0,0,0-6.34,22c-2.43,12.12-11,17.59-23.23,14.53-6.84-1.71-11.85-.13-16.71,4.45-4.25,4-8.91,7.59-13.31,11.46-6,5.31-12.18,9.11-20.14,3.53-1.72-1.2-4-2.84-5.73-2.58-23.38,3.43-39.06-13.24-57.77-21.9-12.16-5.63-23.9-12.24-36.91-15.91-3.07-.87-5.91-1.67-8.88.7-4.72,3.78-8.78,1.64-12.43-2C330.82,745.05,328.44,742,323.06,741.31ZM458.87,313.2c-8.43-5.4-9.08-9-3-16.65,2.24-2.83,4.28-5-1.21-6.82-5.31-1.79-4.71-6.66-3.59-10.9.58-2.18,1.55-4.14-.48-5.83s-4-.71-5.94.38A68.49,68.49,0,0,0,424,290.69c-7.34,9.15-9.28,19.33-8.65,30.74.55,10-2.91,12-12.2,8.36-1-.38-1.91-1.13-2.79-.1-4.71,5.55-10.21,2.47-15.1.87-5.24-1.71-10.37-4.08-14.46-8.16-2.06-2-4.93-2.6-7-.34-2.29,2.53,1,3.66,2.26,4.87,5.15,5,9.68,10.74,16.82,13.28,2.84,1,5.64,2.82,4.41,6.47s-4.44,4-7.94,3.88c-16.78-.65-33.65-2-49.35,6.2a5.15,5.15,0,0,1-5.4-.52c-4.7-3.56-8.22-1-10.83,2.51-3.87,5.27-9.43,8.18-14.65,11.47-14.44,9.12-18.82,8.4-29.77-4.49-2-2.33-3-3-6.7-2.61-7.85.91-9.72,4.69-9.78,11.57a23.42,23.42,0,0,1-2.64,9.91c-2.95,5.83-.57,10.07,3.13,14.21,4.47,5,8.72,10.17,13.49,14.83,2.89,2.82,4.06,5.86,2.66,9.31-3.35,8.32.06,13.62,6.86,18.06,9.18,6,9.51,12.11.37,17.69-6.15,3.75-7.46,8.74-6.31,14.82,1.1,5.79,4.08,10.77,7.58,15.64,5.34,7.45,4.52,9.52-4.5,11.4-5,1-3.73,2.95-2.44,6,1,2.42,3.32,3.3,5,4.94,6.28,6.22,13.34,12.49,11.67,22.37-.83,4.92-.08,7.87,3.56,11,3.35,2.88,6.11,6.36,1,10.5-2.5,2-1.12,4.07.49,6.24,3.82,5.12,7.63,10.49,8.12,17.05a32.6,32.6,0,0,0,7,17.82c5.94,7.82,9.93,16.82,14.48,25.47,1,1.82,2.2,3.18,4.41,2.57s1.38-2.58,1.48-4.05a30,30,0,0,0,0-4.83c-1.54-16.67,7.18-28.13,20.43-35.66C359,574,370.83,570.69,382,566.12a18.26,18.26,0,0,1,7.76-1.59,4.47,4.47,0,0,0,4.57-2.22c4-6,8.63-11.55,11.79-18.11,2.21-4.57,2.13-10.13,5.94-14,2.35-2.36,3-4.34,2.24-8.1-3.06-16.27,1.8-22.91,18.32-27.48a8.8,8.8,0,0,0,6.48-6.39c2.67-11.14,12.05-18.66,15.65-29.34,1.24-3.69,4.82-5.65,8.37-7,9.06-3.49,13.55-19.34,7.16-26.85-4.25-5-7.62-11.18-11.82-15.37-11.3-11.3-19.78-25.84-34.93-33.09-1.81-.87-4.33-1.91-1.37-4.44,4.29-3.66,18-2.67,22,1.28a117.63,117.63,0,0,0,9.23,7.67c1.53,1.23,3.19,2.16,5,.4s1.65-4,0-5.75c-3.4-3.78-6.86-7.54-10.55-11-2-1.87-4.2-4.5-7.4-2.92-5.41,2.69-8.5-1-10.49-4.47-2.14-3.78-2-8.37,2-11.61,3-2.44,4.29-6,6-9.27,1.3-2.51,1.46-5.24-1.28-7.08-3.58-2.41-3.85-3.11-.32-5C443.66,320.48,451.24,317,458.87,313.2Z" transform="translate(900.02 982.43)"/><path class="cls-1" d="M270.19,58c.37-19.25,5.6-34.79,9.31-50.66,5.95-25.43,3-50.3-4.81-75.15-6.61-21.1-11.81-42.68-11.95-65.13-.07-12.11-.71-24.18,1.27-36.24A13.51,13.51,0,0,0,261.27-180c-7.9-10.71-6.73-15.08,4.09-22.51,1.7-1.17,4.45-2,3.94-4.4-.58-2.76-3.5-1.6-5.51-1.93-5.08-.85-8-3.12-7.75-9.08.54-14.8,5.37-28.59,10.37-42.13,4.45-12.09,9.65-24.11,17.61-34.56,8.19-10.77,17.93-18.46,32.54-17.59,9.62.58,17,6.26,24,11.41C357-288.6,363.09-270.53,365-250.76a12.62,12.62,0,0,1-1.79,8.38c-6.87,10-5.2,21.53-5.47,32.29-.28,11.56,1.06,23.16.82,34.86-.11,5.34.51,12.66,3.2,19.1,3.23,7.71-.34,16.72-1.67,25.09-.77,4.81-1.43,9.13,2.79,13.23,3.9,3.79,4.82,9.18,1.5,13.9-9.34,13.25-10,29.34-14.72,44.06-5.19,16.11-4.13,33.13-5.34,49.73-.55,7.56,3.2,15.4,4.84,23.15,4.55,21.41,8.56,43.11,6.94,64.92-1.84,24.73-9.22,47.41-34.06,59.68-6.91,3.41-12.36,4.24-17.95-2.72-4.93-6.12-10-12.27-11.2-19.9-.87-5.37-3.64-8.52-6.92-12-8.21-8.74-13.07-19-13.87-31.11C271.75,66.37,269.65,61,270.19,58Z" transform="translate(900.02 982.43)"/><path class="cls-1" d="M158.4-133.09c1.22,9.52-.91,20.85-3.09,32.07a13.56,13.56,0,0,0,1.08,9.14c9.42,18.55,13.38,38.75,18.05,58.74a41.41,41.41,0,0,1,.87,14.2c-2,14.33,12.35,22.28,12.61,35,.51,24.13,13,45.85,13.45,69.9,0,1.07.33,2.27,0,3.2-4.59,12.15,1.14,22.66,4.62,33.79,3.14,10.05,5.78,20.89-5.36,28.74-1.18.83-1.06,2.41-.29,3.67,4.18,6.79-.3,9.56-5.48,12.23-7.23,3.74-14,7.87-22.65,8.76a34.49,34.49,0,0,1-28.58-9.71c-4.92-4.66-4.42-11.11.57-15.46,3.43-3,2.69-5.09,1.09-7.95-13.57-24.16-18.89-50.76-23.63-77.65-1.12-6.33-4.74-12.31-7.67-18.23-9.18-18.53-15.5-38.1-20.87-58-2.37-8.74-6.4-16.77-9.38-25.22-4.48-12.65-6-25.72-7.25-38.7-.68-6.84-3.14-11.37-7.2-16.2a157.58,157.58,0,0,1-23.21-36.85c-5.12-11.33-1.17-19.72,11.52-25.6a55.65,55.65,0,0,0,6.33-3.15c2.77-1.71,3.78-2.38,1.57-5.83-2.11-3.26-2.42-7.53,2.53-10.11,4.12-2.14,2.61-4-.58-6.26C53.15-188.7,52.21-191.9,61.2-207.09c10.34-17.48,30-24.15,49.52-16.57,13.81,5.38,23.32,14.71,31.2,28C153.21-176.52,158.75-156.91,158.4-133.09Z" transform="translate(900.02 982.43)"/><path class="cls-1" d="M-120.38,391.25c-21.28.15-35.45-11-45.14-28.78-12.13-22.27-23.68-44.85-38.5-65.56-4.53-6.33-4.87-13.77-2.85-21.12,4.16-15.1,10.07-29.09,25.67-36.05,12.88-5.75,26-3.86,38.42.71,25.16,9.26,43.83,26.38,57.28,49.58,3.41,5.87,2.93,11.77,2.92,17.82a17.67,17.67,0,0,0,3.9,11.56c5.17,6.9,11,13.69,11.88,23.09,1.19,12.42-5.56,21.52-12.86,29.79C-90.25,384.3-103.88,391.13-120.38,391.25Z" transform="translate(900.02 982.43)"/><path class="cls-1" d="M-77.19,389.3c2.32.12,4.55-.42,6.41,2.12,5.07,6.94,11.65,12.32,19,16.83,2.16,1.33,3.77,3.71,3.44,5.84s-3.2,2.23-5.27,2.73c-14.46,3.53-28.35-4-32.74-17.72C-87.85,394.54-82.91,389.28-77.19,389.3Z" transform="translate(900.02 982.43)"/><text class="cls-3" transform="translate(366.4 1118.27) rotate(99.29)"> </text><text class="cls-3" transform="translate(358.73 1165.78) rotate(96.09)"> </text><text class="cls-3" transform="matrix(-0.05, 1, -1, -0.05, 353.72, 1213.65)"> </text><text class="cls-3" transform="translate(351.39 1261.73) rotate(89.71)"> </text><text class="cls-3" transform="matrix(0.06, 1, -1, 0.06, 351.73, 1309.85)"> </text><text class="cls-3" transform="translate(354.75 1357.86) rotate(83.35)"> </text><text class="cls-3" transform="matrix(0.17, 0.99, -0.99, 0.17, 360.42, 1405.64)"> </text><text class="cls-4" transform="translate(365.98 1457.17) rotate(74.05)">H</text><text class="cls-4" transform="translate(405.11 1587.95) rotate(66)">E</text><text class="cls-4" transform="translate(448.66 1682.38) rotate(60.64)">I</text><text class="cls-4" transform="matrix(0.57, 0.82, -0.82, 0.57, 476.14, 1733.24)">R</text><text class="cls-4" transform="matrix(0.68, 0.74, -0.74, 0.68, 541.55, 1825.63)">B</text><text class="cls-4" transform="matrix(0.77, 0.64, -0.64, 0.77, 617.27, 1907.54)">R</text><text class="cls-4" transform="translate(704.51 1981.14) rotate(31.86)">U</text><text class="cls-4" transform="matrix(0.93, 0.37, -0.37, 0.93, 823.16, 2054.68)">G</text><text class="cls-4" transform="matrix(0.97, 0.26, -0.26, 0.97, 967.46, 2109.23)"> </text><text class="cls-4" transform="translate(1015.14 2121.97) rotate(11.79)"> </text><text class="cls-4" transform="translate(1063.5 2131.95) rotate(8.51)"> </text><text class="cls-4" transform="translate(1112.32 2139.14) rotate(5.23)"> </text><text class="cls-4" transform="matrix(1, 0.03, -0.03, 1, 1161.46, 2143.54)"> </text><text class="cls-4" transform="translate(1210.78 2145.12) rotate(-1.3)"> </text><text class="cls-4" transform="matrix(1, -0.08, 0.08, 1, 1260.08, 2143.89)"> </text><text class="cls-4" transform="translate(1309.22 2139.87) rotate(-7.8)"> </text><text class="cls-4" transform="translate(1358.09 2133.07) rotate(-11.05)"> </text><text class="cls-4" transform="matrix(0.97, -0.25, 0.25, 0.97, 1406.46, 2123.51)"> </text><text class="cls-4" transform="translate(1454.26 2111.22) rotate(-17.56)"> </text><text class="cls-4" transform="translate(1501.24 2096.24) rotate(-20.82)"> </text><text class="cls-4" transform="translate(1551.25 2079.13) rotate(-26.98)">D</text><text class="cls-4" transform="translate(1676.72 2011.68) rotate(-34.16)">’</text><text class="cls-4" transform="translate(1731 1976.77) rotate(-40.8)">H</text><text class="cls-4" transform="matrix(0.64, -0.77, 0.77, 0.64, 1834.86, 1886.01)">A</text><text class="cls-4" transform="matrix(0.5, -0.86, 0.86, 0.5, 1924.61, 1778.78)">N</text><text class="cls-4" transform="translate(2002.47 1642.01) rotate(-69.47)">D</text><text class="cls-5" transform="matrix(0.25, -0.97, 0.97, 0.25, 2048.57, 1516.89)"> </text><text class="cls-6" transform="translate(2057.67 1466.99) rotate(-79.02)"> </text></g></svg>